<?xml version="1.0" standalone="no"?>
<!DOCTYPE svg PUBLIC "-//W3C//DTD SVG 1.1//EN" "http://www.w3.org/Graphics/SVG/1.1/DTD/svg11.dtd" >
<svg xmlns="http://www.w3.org/2000/svg" xmlns:xlink="http://www.w3.org/1999/xlink" version="1.1">
<metadata>
Created by FontForge 20150318 at Fri Aug 14 05:10:26 2015
 By uniteet7
2009 - 2011, The League of Moveable Type
</metadata>
<defs>
<font id="LeagueGothicRegular" horiz-adv-x="337" >
  <font-face 
    font-family="LeagueGothicRegular"
    font-weight="400"
    font-stretch="normal"
    units-per-em="1000"
    panose-1="0 0 5 0 0 0 0 0 0 0"
    ascent="735"
    descent="-265"
    x-height="547"
    cap-height="735"
    bbox="-32 -250 777 952"
    underline-thickness="50"
    underline-position="-50"
    unicode-range="U+0020-FB02"
  />
<missing-glyph horiz-adv-x="154" 
 />
    <glyph glyph-name=".notdef" horiz-adv-x="154" 
 />
    <glyph glyph-name=".null" horiz-adv-x="0" 
 />
    <glyph glyph-name="nonmarkingreturn" horiz-adv-x="333" 
 />
    <glyph glyph-name="space" unicode=" " horiz-adv-x="154" 
 />
    <glyph glyph-name="exclam" unicode="!" horiz-adv-x="189" 
d="M36 735l27 -537h63l27 537h-117zM42 111v-111h105v111h-105z" />
    <glyph glyph-name="quotedbl" unicode="&#x22;" horiz-adv-x="260" 
d="M53 466h75l15 269h-105zM177 466h75l15 269h-105z" />
    <glyph glyph-name="numbersign" unicode="#" horiz-adv-x="602" 
d="M37 309l-13 -95h97l-29 -214h96l29 214h127l-29 -214h96l29 214h93l13 95h-93l18 126h94l13 95h-94l28 205h-96l-28 -205h-127l28 205h-96l-28 -205h-96l-13 -95h96l-18 -126h-97zM230 309l18 126h127l-18 -126h-127z" />
    <glyph glyph-name="dollar" unicode="$" horiz-adv-x="338" 
d="M200 795h-60v-64q-57 -13 -83 -64q-22 -43 -22 -103q0 -32 10 -61q15 -50 57 -111q26 -38 63 -86q9 -13 27 -41q28 -49 28 -85q0 -39 -10 -62q-12 -28 -35 -28q-31 0 -47 28q-14 23 -16 63l-94 -6q2 -65 30 -111q31 -50 92 -61v-108h60v106q62 7 94 62q26 44 26 118
q0 32 -9 62q-18 53 -58 110q-31 44 -34 48q-39 52 -56 81q-28 47 -28 84q0 29 10 54t31 25q21 1 31.5 -15.5t13.5 -45.5l94 12q-7 58 -31 91q-30 42 -84 47v61z" />
    <glyph glyph-name="percent" unicode="%" horiz-adv-x="489" 
d="M182 445v213q-2 25 -10 42q-23 43 -67 43q-31 0 -45 -13q-33 -28 -33 -72v-213q0 -25 9 -43q21 -43 69 -43q30 0 44 13q32 27 33 73zM77 0h67l267 735h-64zM122 658v-213q0 -27 -17 -27q-20 0 -18 27v213q-1 5 1 13q6 14 17 14q7 0 10 -4q7 -11 7 -23zM463 77v213
q-2 25 -10 43q-23 43 -67 43q-31 0 -45 -13q-33 -28 -33 -73v-213q0 -25 9 -43q22 -42 69 -42q30 0 44 13q32 27 33 72zM403 290v-213q0 -6 -2 -14q-6 -14 -15 -14q-8 0 -11 5q-8 10 -7 23v213q-1 5 1 13q6 14 17 14q7 0 10 -4q7 -11 7 -23z" />
    <glyph glyph-name="ampersand" unicode="&#x26;" horiz-adv-x="417" 
d="M397 319l-86 16q-13 -75 -23 -103q-31 46 -72 139q44 57 72 111q47 89 14 181q-30 80 -115 80q-52 0 -78 -25q-53 -48 -54 -135q0 -109 52 -216q-26 -41 -41 -66.5t-28.5 -66.5t-13.5 -80q0 -65 42 -113q42 -49 106 -49q63 0 123 68q17 -18 33 -30q36 -27 55 -34
q9 -4 14 -4v115q-4 1 -17 11q-10 6 -28 26q21 42 34 101q8 37 11 74zM225 586q0 -47 -49 -123q-15 36 -20 61q-13 54 -4 96q8 37 35 37q16 0 24 -11q16 -21 14 -60zM238 128q-12 -15 -19 -22.5t-18 -13.5t-24 -6q-21 0 -34 21q-23 35 -12 100q8 43 22 65q35 -64 85 -144z
" />
    <glyph glyph-name="quotesingle" unicode="'" horiz-adv-x="151" 
d="M43 466h75l15 269h-105z" />
    <glyph glyph-name="parenleft" unicode="(" horiz-adv-x="274" 
d="M254 735l-79 41q-40 -62 -72 -137q-71 -166 -71 -324q0 -96 22 -177q41 -157 121 -283l79 41q-35 50 -63 116q-63 148 -63 303q0 93 20 171q39 153 106 249z" />
    <glyph glyph-name="parenright" unicode=")" horiz-adv-x="274" 
d="M99 776l-79 -41q34 -53 63 -117q63 -152 63 -303q0 -92 -20 -170q-41 -155 -106 -249l79 -41q39 62 71 136q72 168 72 324q0 96 -22 178q-42 155 -121 283z" />
    <glyph glyph-name="asterisk" unicode="*" horiz-adv-x="331" 
d="M128 735l9 -86l-80 34l-21 -72l84 -17l-56 -67l64 -39l37 74l38 -74l64 39l-56 67l84 17l-21 72l-80 -34l9 86h-75z" />
    <glyph glyph-name="plus" unicode="+" horiz-adv-x="518" 
d="M36 401v-84h181v-169h84v169h181v84h-181v169h-84v-169h-181z" />
    <glyph glyph-name="comma" unicode="," horiz-adv-x="151" 
d="M127 0v111h-105v-111h35l-35 -130h50z" />
    <glyph glyph-name="hyphen" unicode="-" horiz-adv-x="217" 
d="M36 317v-95h145v95h-145z" />
    <glyph glyph-name="period" unicode="." horiz-adv-x="157" 
d="M26 111v-111h105v111h-105z" />
    <glyph glyph-name="slash" unicode="/" horiz-adv-x="352" 
d="M269 735l-265 -807h82l262 807h-79z" />
    <glyph glyph-name="zero" unicode="0" horiz-adv-x="354" 
d="M321 151v433q-2 45 -18 79q-15 34 -43 55q-33 25 -83 25q-51 0 -84 -25q-26 -20 -42 -55q-16 -34 -18 -79v-433q2 -46 18 -80q15 -34 42 -54q31 -25 84 -25q52 0 83 25q28 21 43 54q16 34 18 80zM213 584v-433q0 -18 -4 -27q-7 -27 -32 -27q-13 0 -21 8q-15 16 -15 46
v433q0 16 4 27q8 27 32 27q14 0 22 -8q14 -17 14 -46z" />
    <glyph glyph-name="one" unicode="1" horiz-adv-x="232" 
d="M12 576h72v-576h108v735h-65q-10 -21 -24 -38q-40 -42 -91 -52v-69z" />
    <glyph glyph-name="two" unicode="2" horiz-adv-x="357" 
d="M30 502h108v51q0 39 7 63q8 27 29 27t30 -30q6 -20 6 -60q-1 -57 -31 -146q-24 -73 -62 -145q-42 -81 -90 -155v-107h293v107h-171q63 106 106 206q63 149 63 247q0 85 -30 130q-36 53 -114 53q-81 0 -116 -58q-28 -47 -28 -132v-51z" />
    <glyph glyph-name="three" unicode="3" horiz-adv-x="335" 
d="M112 332h9q33 -1 53 -13q30 -20 30 -76q-1 -19 -1 -63t-4 -62q-7 -31 -30 -31q-20 0 -28 26q-9 28 -9 99h-106q0 -92 21 -141q33 -79 122 -79q35 0 58 13q42 23 63 78q16 47 18 84q1 11 1 21q0 153 -62 202l1 1q52 52 52 194q0 47 -19 86q-35 72 -121 72q-87 0 -119 -78
q-19 -47 -19 -142h106q0 72 7 100q5 25 25 25q23 0 30 -32q4 -19 4 -63v-59q0 -25 -7 -39q-12 -29 -75 -33v-90z" />
    <glyph glyph-name="four" unicode="4" horiz-adv-x="334" 
d="M179 160v-160h99v160h50v95h-50v480h-108l-158 -480v-95h167zM104 255l63 230l6 22h6v-252h-75z" />
    <glyph glyph-name="five" unicode="5" horiz-adv-x="344" 
d="M210 348v-164q0 -55 -8 -77q-8 -21 -25 -21q-19 0 -26 22q-7 20 -7 77v29h-108q0 -99 21 -147q32 -75 120 -75q86 0 120 71q21 43 21 121v164q0 46 -18 85q-31 67 -102 67q-11 2 -22 -3q-19 -6 -40 -22v153h168v107h-261v-387h91q0 16 12 34q15 20 30 20q34 0 34 -54z
" />
    <glyph glyph-name="six" unicode="6" horiz-adv-x="342" 
d="M314 151v150q0 56 -18 93q-30 62 -102 62q-23 0 -54 -18v131q0 43 7 61q6 19 26 19q23 0 28 -26q5 -24 5 -100h108v46q0 68 -20 107q-35 67 -121 67t-121 -67q-20 -39 -20 -107v-418q0 -53 21 -92q35 -67 120 -67t120 67q21 39 21 92zM140 119v223q1 11 9.5 20.5
t23.5 9.5t24 -12t9 -21v-220q0 -9 -9 -21t-24 -12q-16 0 -24.5 11.5t-8.5 21.5z" />
    <glyph glyph-name="seven" unicode="7" horiz-adv-x="288" 
d="M166 628l-110 -628h112l108 627v108h-272v-107h162z" />
    <glyph glyph-name="eight" unicode="8" horiz-adv-x="340" 
d="M314 157v86q0 92 -56 145q50 50 50 135v62q0 49 -18 86q-35 72 -120 72q-84 0 -119 -72q-19 -39 -19 -86v-62q0 -85 50 -135q-56 -53 -56 -145v-86q0 -22 6 -51q9 -45 38 -75q37 -39 100 -39t100 39q29 30 38 75q6 29 6 51zM202 547q0 -56 -5 -84q-6 -27 -27 -27
q-22 0 -26 27q-6 26 -5.5 83.5t7.5 79.5q6 22 24 22q21 0 27 -25q5 -28 5 -76zM209 200q0 -48 -5 -80q-6 -29 -34 -29q-23 0 -30 25q-7 24 -8 87t5 95q5 32 33 32t34 -32q5 -35 5 -98z" />
    <glyph glyph-name="nine" unicode="9" horiz-adv-x="342" 
d="M28 584v-143q0 -56 18 -93q30 -62 102 -62q23 0 54 18v-138q0 -42 -6 -61q-7 -19 -27 -19q-23 0 -28 26q-5 24 -5 100h-108v-46q0 -68 20 -106q35 -68 121 -68t121 68q20 38 20 106v418q0 53 -21 93q-36 66 -120 66t-120 -66q-21 -40 -21 -93zM202 616v-216
q-1 -11 -9.5 -20.5t-23.5 -9.5t-24 12t-9 21v213q0 9 9 21t24 12q16 0 24.5 -11.5t8.5 -21.5z" />
    <glyph glyph-name="colon" unicode=":" horiz-adv-x="177" 
d="M36 547v-111h105v111h-105zM36 111v-111h105v111h-105z" />
    <glyph glyph-name="semicolon" unicode=";" horiz-adv-x="177" 
d="M36 547v-111h105v111h-105zM141 0v111h-105v-111h35l-35 -130h50z" />
    <glyph glyph-name="less" unicode="&#x3c;" horiz-adv-x="517" 
d="M36 395v-78l445 -232v97l-341 174l341 174v97z" />
    <glyph glyph-name="equal" unicode="=" horiz-adv-x="517" 
d="M36 506v-84h445v84h-445zM36 317v-84h445v84h-445z" />
    <glyph glyph-name="greater" unicode="&#x3e;" horiz-adv-x="517" 
d="M481 317v78l-445 232v-97l341 -174l-341 -174v-97z" />
    <glyph glyph-name="question" unicode="?" horiz-adv-x="315" 
d="M103 198h93v125q0 27 6 53q11 42 35 84q4 6 11 18t8 14q39 67 39 107q0 47 -22 84q-33 55 -108 56q-61 1 -106 -49q-36 -41 -47 -75l87 -41q9 26 21 44q20 27 43 27q20 0 29 -18q6 -15 4 -28q-5 -20 -26 -55q-32 -54 -45 -89q-22 -61 -22 -132v-125zM97 111v-111h105v111
h-105z" />
    <glyph glyph-name="at" unicode="@" horiz-adv-x="426" 
d="M398 195v387q0 54 -36 99q-51 62 -147 62q-97 0 -146 -62q-37 -45 -37 -99v-434q0 -51 37 -95q50 -61 146 -61q103 0 156 70l-74 42q-25 -31 -82 -31q-49 0 -74 29q-19 20 -19 46v434q0 24 19 47q26 30 74 30q49 0 75 -30q18 -22 18 -47v-22q-3 6 -13 16q-19 17 -42 17
q-71 0 -71 -83v-237q0 -84 71 -84q13 0 25 5q20 10 30 28l10 -27h80zM308 502v-222q0 -26 -24 -26q-23 0 -23 26v222q0 26 23 26q24 0 24 -26z" />
    <glyph glyph-name="A" unicode="A" horiz-adv-x="374" 
d="M10 0h105l20 150h104l20 -150h105l-111 735h-132zM193 496l31 -232h-74l31 232l3 19h6z" />
    <glyph glyph-name="B" unicode="B" horiz-adv-x="364" 
d="M40 0h133q91 4 132 66q35 53 35 142q0 56 -12 90q-23 68 -63 90q39 35 53 67q14 31 14 85q0 105 -50 152q-46 43 -147 43h-95v-735zM148 432v196q32 0 48 -11q32 -21 32 -87t-32 -87q-17 -11 -48 -11zM148 107v226q33 0 48 -11q32 -23 32 -102t-32 -102q-15 -11 -48 -11z
" />
    <glyph glyph-name="C" unicode="C" horiz-adv-x="346" 
d="M321 252h-101v-101q0 -18 -4 -27q-9 -27 -37 -27q-13 0 -21 8q-16 17 -17 46v433q2 19 5 27q10 27 33 27q17 0 25 -8q16 -17 16 -46v-101h101v101q-2 45 -18 79q-15 34 -43 55q-33 25 -83 25q-51 0 -84 -25q-26 -20 -42 -55q-16 -34 -18 -79v-433q2 -46 18 -80
q15 -34 42 -54q31 -25 84 -25q52 0 83 25q28 21 43 54q16 34 18 80v101z" />
    <glyph glyph-name="D" unicode="D" horiz-adv-x="372" 
d="M40 0h85q76 0 119 17.5t64 58.5q20 39 26 105t6 186t-6 186.5t-26 105.5q-21 41 -64 58.5t-119 17.5h-85v-735zM148 108v519q31 0 46 -7.5t23 -31.5q9 -31 10 -78q1 -35 1 -142t-1 -142q-1 -49 -10 -78q-8 -25 -23 -32.5t-46 -7.5z" />
    <glyph glyph-name="E" unicode="E" horiz-adv-x="307" 
d="M40 735v-735h247v111h-139v202h100v118h-100v193h139v111h-247z" />
    <glyph glyph-name="F" unicode="F" horiz-adv-x="301" 
d="M297 624v111h-257v-735h108v320h100v111h-100v193h149z" />
    <glyph glyph-name="G" unicode="G" horiz-adv-x="360" 
d="M213 471h108v113q-2 45 -18 79q-15 34 -43 55q-33 25 -83 25q-51 0 -84 -25q-26 -20 -42 -55q-16 -34 -18 -79v-433q-2 -45 12 -80q13 -34 38 -54q28 -25 77 -25q50 0 84 43l13 -35h64v366h-151v-91h43v-133q0 -18 -4 -27q-7 -27 -32 -27q-13 0 -21 8q-15 16 -15 46v442
q0 16 4 27q8 27 32 27q14 0 22 -8q14 -17 14 -46v-113z" />
    <glyph glyph-name="H" unicode="H" horiz-adv-x="380" 
d="M232 320v-320h108v735h-108v-304h-84v304h-108v-735h108v320h84z" />
    <glyph glyph-name="I" unicode="I" horiz-adv-x="188" 
d="M40 735v-735h108v735h-108z" />
    <glyph glyph-name="J" unicode="J" horiz-adv-x="207" 
d="M6 99v-106q90 -6 131 39q35 38 35 104v599h-108v-582q0 -25 -9 -36q-17 -23 -49 -18z" />
    <glyph glyph-name="K" unicode="K" horiz-adv-x="375" 
d="M148 735h-108v-735h108v260l25 60l6 15h3l3 -15l75 -320h105l-112 493l99 242h-105l-90 -245l-5 -12h-4v257z" />
    <glyph glyph-name="L" unicode="L" horiz-adv-x="295" 
d="M40 735v-735h251v100h-143v635h-108z" />
    <glyph glyph-name="M" unicode="M" horiz-adv-x="484" 
d="M219 0h46l69 462l4 31h6v-493h100v735h-132l-64 -336l-5 -39h-2l-5 39l-64 336h-132v-735h100v493h6l4 -31z" />
    <glyph glyph-name="N" unicode="N" horiz-adv-x="395" 
d="M154 383l105 -383h96v735h-99v-417h-6l-9 34l-105 383h-96v-735h99v417h6z" />
    <glyph glyph-name="O" unicode="O" horiz-adv-x="354" 
d="M321 151v433q-2 45 -18 79q-15 34 -43 55q-33 25 -83 25q-51 0 -84 -25q-26 -20 -42 -55q-16 -34 -18 -79v-433q2 -46 18 -80q15 -34 42 -54q31 -25 84 -25q52 0 83 25q28 21 43 54q16 34 18 80zM213 584v-433q0 -18 -4 -27q-7 -27 -32 -27q-13 0 -21 8q-15 16 -15 46
v433q0 16 4 27q8 27 32 27q14 0 22 -8q14 -17 14 -46z" />
    <glyph glyph-name="P" unicode="P" horiz-adv-x="352" 
d="M40 735v-735h108v294q79 0 130 48q60 57 60 173q0 117 -60 174q-49 46 -130 46h-108zM148 404v221q49 0 66 -26q15 -23 15 -88q0 -64 -15 -84q-16 -23 -66 -23z" />
    <glyph glyph-name="Q" unicode="Q" horiz-adv-x="356" 
d="M321 151v433q-2 45 -18 79q-15 34 -43 55q-33 25 -83 25q-51 0 -84 -25q-26 -20 -42 -55q-16 -34 -18 -79v-433q2 -46 18 -80q15 -34 42 -54q31 -25 84 -25q27 0 54 9q35 -57 111 -57v92q-27 5 -43 26q11 24 13 32q9 32 9 57zM213 584v-433q0 -18 -4 -27q-7 -27 -32 -27
q-13 0 -21 8q-15 16 -15 46v433q0 16 4 27q8 27 32 27q14 0 22 -8q14 -17 14 -46z" />
    <glyph glyph-name="R" unicode="R" horiz-adv-x="361" 
d="M233 0h108l-69 356q60 41 60 167q0 106 -44.5 159t-139.5 53h-108v-735h108v310h29zM148 410v218q34 0 51 -15q29 -25 29 -94q0 -68 -29 -93q-18 -16 -51 -16z" />
    <glyph glyph-name="S" unicode="S" horiz-adv-x="343" 
d="M219 538l106 10q0 79 -27 130q-36 66 -124 65q-70 -1 -109 -56q-32 -46 -32 -116q0 -31 9 -59q16 -57 53 -114q34 -53 68 -101q6 -9 15.5 -24.5t12.5 -19.5q28 -51 28 -81q0 -81 -44 -81q-30 0 -42 40q-9 26 -9 85l-106 -10q0 -99 27 -148q36 -66 130 -66q81 0 119 56
q31 46 31 129q0 53 -32 115q-21 41 -69 112q-49 73 -58 88q-27 47 -27 79q0 72 37 73q23 0 35 -34q8 -24 8 -72z" />
    <glyph glyph-name="T" unicode="T" horiz-adv-x="316" 
d="M2 624h102v-624h108v624h102v111h-312v-111z" />
    <glyph glyph-name="U" unicode="U" horiz-adv-x="366" 
d="M327 735h-108v-584q0 -18 -4 -27q-7 -27 -32 -27q-13 0 -21 8q-15 16 -15 46v584h-108v-584q2 -46 18 -80q15 -34 42 -54q31 -25 84 -25q52 0 83 25q28 21 43 54q16 34 18 80v584z" />
    <glyph glyph-name="V" unicode="V" horiz-adv-x="350" 
d="M236 735l-54 -404l-4 -31h-6l-4 31l-54 404h-105l112 -735h108l112 735h-105z" />
    <glyph glyph-name="W" unicode="W" horiz-adv-x="506" 
d="M195 0l50 348l6 43h4l6 -43l50 -348h84l99 735h-100l-43 -382l-2 -24h-8l-3 24l-46 382h-78l-46 -382l-3 -24h-8l-2 24l-43 382h-100l99 -735h84z" />
    <glyph glyph-name="X" unicode="X" horiz-adv-x="360" 
d="M114 0l62 219l2 9h4l2 -9l62 -219h106l-119 386l117 349h-106l-59 -186l-3 -9h-4l-3 9l-59 186h-106l117 -349l-119 -386h106z" />
    <glyph glyph-name="Y" unicode="Y" horiz-adv-x="342" 
d="M167 500l-54 235h-106l110 -422v-313h108v313l110 422h-106l-54 -235l-3 -7h-2z" />
    <glyph glyph-name="Z" unicode="Z" horiz-adv-x="306" 
d="M10 116v-116h286v107h-172l172 521v107h-262v-107h145z" />
    <glyph glyph-name="bracketleft" unicode="[" horiz-adv-x="263" 
d="M235 639v96h-195v-839h195v96h-99v647h99z" />
    <glyph glyph-name="backslash" unicode="\" horiz-adv-x="387" 
d="M383 -88l-300 914h-79l297 -914h82z" />
    <glyph glyph-name="bracketright" unicode="]" horiz-adv-x="263" 
d="M28 735v-96h99v-647h-99v-96h195v839h-195z" />
    <glyph glyph-name="asciicircum" unicode="^" horiz-adv-x="538" 
d="M326 735h-114l-186 -340h97l146 265l146 -265h97z" />
    <glyph glyph-name="underscore" unicode="_" horiz-adv-x="591" 
d="M36 -75v-84h519v84h-519z" />
    <glyph glyph-name="grave" unicode="`" horiz-adv-x="500" 
d="M248 727h-105l79 -90h78z" />
    <glyph glyph-name="a" unicode="a" horiz-adv-x="323" 
d="M193 417v-60q-4 -10 -48 -33q-50 -26 -79 -62q-42 -52 -42 -135q0 -75 31 -110q20 -25 50 -25q29 0 53 19q17 13 28 33h7q0 -33 9 -44h99q-7 42 -7 95v336q0 54 -37 89t-86 35q-59 0 -97 -43q-39 -44 -39 -103v-23h101v26q0 10 2 26q5 29 27 29q18 0 25 -17q3 -10 3 -33z
M193 264v-140q0 -14 -12.5 -23.5t-29.5 -9.5q-16 0 -23 21q-5 14 -5 30q0 92 70 122z" />
    <glyph glyph-name="b" unicode="b" horiz-adv-x="335" 
d="M40 735v-735h101v36q16 -14 26 -22q30 -22 54 -22q37 0 60 37q18 30 18 70v349q0 40 -18 71q-23 36 -60 36q-15 0 -28 -7q-24 -11 -52 -37v224h-101zM141 120v307q0 12 9.5 22.5t20.5 10.5t19 -9.5t8 -23.5v-307q0 -14 -8 -23.5t-19 -9.5q-12 0 -21 9.5t-9 23.5z" />
    <glyph glyph-name="c" unicode="c" horiz-adv-x="315" 
d="M133 126v295q0 44 28 44q17 0 23 -9.5t6 -34.5v-66h101v43q0 88 -33 124q-30 33 -97 33q-60 0 -92 -35q-37 -40 -37 -127v-239q0 -87 37 -127q32 -35 92 -35q67 0 97 33q33 36 33 124v53h-101v-76q0 -25 -6 -34.5t-23 -9.5q-28 0 -28 44z" />
    <glyph glyph-name="d" unicode="d" horiz-adv-x="335" 
d="M295 0v735h-101v-224q-16 14 -26 22q-30 22 -54 22q-37 0 -59 -36q-19 -31 -19 -71v-349q0 -41 19 -70q21 -37 59 -37q15 0 29 7q24 11 51 37v-36h101zM194 427v-307q0 -14 -9 -23.5t-21 -9.5q-11 0 -19 9.5t-8 23.5v307q0 14 8 23.5t19 9.5t20.5 -10.5t9.5 -22.5z" />
    <glyph glyph-name="e" unicode="e" horiz-adv-x="322" 
d="M293 196h-94v-60q0 -17 -4 -28q-7 -27 -32 -27q-13 0 -21 8q-15 18 -16 47v119h167v159q-1 36 -16 70q-32 71 -114 71q-50 0 -75 -22q-52 -43 -56 -122v-275q1 -38 16 -72q32 -72 114 -72q50 0 76 22q51 41 55 119v63zM126 334v77q2 19 5 28q9 28 32 28q14 0 22 -8
q14 -17 14 -48v-77h-73z" />
    <glyph glyph-name="f" unicode="f" horiz-adv-x="232" 
d="M61 0h101v456h51v91h-51v14v24q0 15 3 30q7 34 29 34q7 0 21 -2q1 -1 4 -1t5 -1v87l-12 3q-11 4 -35 4q-76 0 -101 -67q-15 -40 -15 -110v-15h-51v-91h51v-456z" />
    <glyph glyph-name="g" unicode="g" horiz-adv-x="342" 
d="M287 264v155q0 7 -1 10t-1 11q-1 3 -3 13q21 12 59 12v90q-21 0 -48 -20q-16 -11 -35 -30q-35 50 -101 50q-48 0 -73 -22q-49 -41 -55 -117v-149q1 -20 8 -45q14 -51 50 -74q-24 -13 -42 -35q-21 -26 -21 -47q0 -56 61 -73q-36 -17 -54 -34q-25 -23 -25 -49q0 -57 45 -82
q39 -22 117 -24q71 0 118 30q55 36 55 110q0 64 -46 96q-35 24 -94 31q-36 6 -52 11q-25 7 -25 23q0 13 14 25q3 -1 10 -1h9q47 0 74 21q52 40 56 114zM188 412v-150q0 -14 -3 -25q-8 -24 -28 -24q-12 0 -18 8q-12 14 -11 41v150q-1 13 2 25q6 25 27 25q13 0 19 -8
q12 -16 12 -42zM141 -25l52 -10q34 -5 46 -16q8 -8 8 -23q0 -18 -26 -28q-23 -9 -51 -9q-66 0 -66 38q0 27 37 48z" />
    <glyph glyph-name="h" unicode="h" 
d="M141 0v431q3 5 9 13q13 13 24 13q24 0 24 -24v-433h101v448q0 40 -18 71q-22 36 -58 36q-13 0 -26 -7q-18 -10 -44 -36q-10 -10 -12 -11v234h-101v-735h101z" />
    <glyph glyph-name="i" unicode="i" horiz-adv-x="181" 
d="M40 735v-101h101v101h-101zM40 0h101v547h-101v-547z" />
    <glyph glyph-name="j" unicode="j" horiz-adv-x="178" 
d="M37 735v-101h101v101h-101zM138 547h-101v-560v-23q0 -10 -2 -26q-7 -31 -29 -31q-5 0 -19 2q-1 1 -4 1t-5 1v-93q6 -2 10 -3q11 -3 34 -3q77 0 102 66q14 36 14 108v561z" />
    <glyph glyph-name="k" unicode="k" horiz-adv-x="313" 
d="M141 735h-101v-735h101v189l13 32l3 8h5l2 -8l50 -221h97l-92 369l73 178h-91l-49 -143l-6 -18h-5v349z" />
    <glyph glyph-name="l" unicode="l" horiz-adv-x="181" 
d="M40 0h101v735h-101v-735z" />
    <glyph glyph-name="m" unicode="m" horiz-adv-x="499" 
d="M301 0v431q3 5 11 13q13 13 27 13q27 0 27 -24v-433h95v448q0 40 -18 71q-22 36 -58 36q-13 0 -27 -8q-30 -17 -49 -38q-12 -12 -16 -15q-21 61 -68 61q-13 0 -26 -7q-22 -13 -46 -36q-10 -10 -12 -11v46h-101v-547h101v431q3 5 11 13q13 13 27 13q27 0 27 -24v-433h95z
" />
    <glyph glyph-name="n" unicode="n" 
d="M141 0v431q3 5 9 13q13 13 24 13q24 0 24 -24v-433h101v448q0 40 -18 71q-22 36 -58 36q-13 0 -26 -7q-18 -10 -44 -36q-10 -10 -12 -11v46h-101v-547h101z" />
    <glyph glyph-name="o" unicode="o" horiz-adv-x="321" 
d="M290 133v281q-1 36 -16 70q-32 71 -114 71q-50 0 -75 -22q-49 -42 -54 -122v-275q1 -38 16 -72q32 -72 113 -72q50 0 76 22q50 41 54 119zM195 411v-275q1 -16 -3 -28q-7 -27 -32 -27q-13 0 -21 8q-14 18 -13 47v275q-1 16 3 28q7 28 31 28q14 0 22 -8q14 -17 13 -48z
" />
    <glyph glyph-name="p" unicode="p" horiz-adv-x="335" 
d="M40 547v-735h101v224q16 -14 26 -22q30 -22 54 -22q37 0 60 37q18 30 18 70v349q0 40 -18 71q-23 36 -60 36q-15 0 -28 -7q-24 -11 -52 -37v36h-101zM141 120v307q0 14 9 23.5t21 9.5q11 0 19 -9.5t8 -23.5v-307q0 -14 -8 -23.5t-19 -9.5t-20.5 10.5t-9.5 22.5z" />
    <glyph glyph-name="q" unicode="q" horiz-adv-x="335" 
d="M295 -188v735h-101v-36q-16 14 -26 22q-30 22 -54 22q-37 0 -59 -36q-19 -31 -19 -71v-349q0 -41 19 -70q21 -37 59 -37q15 0 29 7q24 11 51 37v-224h101zM194 427v-307q0 -12 -9.5 -22.5t-20.5 -10.5t-19 9.5t-8 23.5v307q0 14 8 23.5t19 9.5q12 0 21 -9.5t9 -23.5z" />
    <glyph glyph-name="r" unicode="r" horiz-adv-x="246" 
d="M242 443v112q-46 0 -77 -29q-21 -21 -24 -40v61h-101v-547h101v380q0 31 22 50q18 17 51 17q16 0 28 -4z" />
    <glyph glyph-name="s" unicode="s" horiz-adv-x="308" 
d="M193 407h94q0 64 -20 98q-30 51 -109 50q-65 -1 -98 -50q-25 -38 -25 -98q0 -51 31 -97q16 -24 65 -71q63 -63 63 -97q0 -66 -35 -66q-26 0 -39 31q-8 18 -8 52h-94q0 -64 24 -105q36 -62 117 -62q65 0 101 50q28 39 28 100q0 46 -30 95q-15 24 -63 72q-29 28 -44 47
q-22 27 -22 51q0 28 6 42q7 22 25 22q20 0 29 -22q4 -13 4 -42z" />
    <glyph glyph-name="t" unicode="t" horiz-adv-x="245" 
d="M162 682h-101v-135h-51v-91h51v-280q0 -75 15 -116q25 -68 101 -68q24 0 39 3q2 1 7 2t8 2v99q-2 0 -6 -1t-6 -1q-14 -2 -25 -2q-21 0 -28 33q-4 18 -4 57v272h69v91h-69v135z" />
    <glyph glyph-name="u" unicode="u" 
d="M196 547v-431q-6 -10 -9 -13q-13 -13 -24 -13q-24 0 -24 24v433h-101v-448q0 -40 18 -70q21 -37 58 -37q13 0 27 8q18 10 44 36q9 9 11 10v-46h101v547h-101z" />
    <glyph glyph-name="v" unicode="v" horiz-adv-x="294" 
d="M97 0h100l89 547h-98l-33 -317l-4 -35h-8l-4 35l-33 317h-98z" />
    <glyph glyph-name="w" unicode="w" horiz-adv-x="442" 
d="M267 0h84l81 547h-92l-32 -286l-4 -31h-6l-5 31l-42 286h-60l-42 -286l-5 -31h-6l-4 31l-32 286h-92l81 -547h84l39 261l5 31h4l5 -31z" />
    <glyph glyph-name="x" unicode="x" horiz-adv-x="302" 
d="M102 282l-94 -282h98l41 138l3 15h2l3 -15l41 -138h98l-94 282l86 265h-95l-36 -128l-3 -15h-2l-3 15l-36 128h-95z" />
    <glyph glyph-name="y" unicode="y" horiz-adv-x="310" 
d="M16 -104v-90q24 -2 33 -2h12q55 0 96 49q36 43 44 106l97 588h-99l-40 -336l-2 -28h-4l-2 28l-40 336h-99l93 -563q0 -17 -4 -30q-9 -32 -33 -50q-19 -14 -46 -9q-5 0 -6 1z" />
    <glyph glyph-name="z" unicode="z" horiz-adv-x="260" 
d="M6 82v-82h246v92h-139l139 373v82h-224v-92h117z" />
    <glyph glyph-name="braceleft" unicode="{" horiz-adv-x="336" 
d="M308 659v84q-121 2 -165 -33q-49 -39 -49 -147v-194q0 -19 -12 -39q-16 -29 -52 -29v-80q35 -1 52 -30q12 -21 12 -38v-194q0 -108 49 -147q44 -35 165 -33v84q-68 0 -91 18q-27 21 -27 78v194q0 68 -62 108q62 38 62 108v194q0 57 27 78q23 18 91 18z" />
    <glyph glyph-name="bar" unicode="|" horiz-adv-x="174" 
d="M40 -250h94v1076h-94v-1076z" />
    <glyph glyph-name="braceright" unicode="}" horiz-adv-x="336" 
d="M242 369v194q0 109 -48 147q-44 35 -166 33v-84q68 0 91 -18q27 -21 27 -78v-194q0 -70 62 -108q-62 -40 -62 -108v-194q0 -57 -27 -78q-23 -18 -91 -18v-84q122 -2 166 33q48 38 48 147v194q0 17 12 38q17 29 52 30v80q-36 0 -52 29q-12 20 -12 39z" />
    <glyph glyph-name="asciitilde" unicode="~" horiz-adv-x="625" 
d="M55 660l66 -28q8 22 23 44q31 44 75 44q34 0 87 -36q25 -16 40.5 -24.5t41 -16.5t51.5 -8q40 0 71 23q58 46 88 128l-66 28q-12 -29 -23 -45q-29 -44 -70 -44q-35 0 -85 35q-1 1 -14 9t-15.5 9t-14 8t-16.5 8.5t-16 6t-18.5 5.5t-18.5 2.5t-22 1.5q-43 0 -75 -23
q-62 -49 -89 -127z" />
    <glyph glyph-name="uni0093" horiz-adv-x="305" 
d="M26 605v-111h105v111h-35l35 130h-50zM174 605v-111h105v111h-35l35 130h-50z" />
    <glyph glyph-name="uni0094" horiz-adv-x="305" 
d="M131 624v111h-105v-111h35l-35 -130h50zM279 624v111h-105v-111h35l-35 -130h50z" />
    <glyph glyph-name="exclamdown" unicode="&#xa1;" horiz-adv-x="189" 
d="M42 547v-111h105v111h-105zM63 349l-27 -537h117l-27 537h-63z" />
    <glyph glyph-name="cent" unicode="&#xa2;" horiz-adv-x="311" 
d="M194 765h-60v-118q-102 -15 -102 -160v-239q0 -146 102 -161v-147h60v148q47 7 70 43t23 112v53h-92v-76q0 -44 -36 -44q-35 0 -35 44v295q0 44 35 44q36 0 36 -44v-66h92v43q0 75 -23 112q-23 34 -70 42v119z" />
    <glyph glyph-name="sterling" unicode="&#xa3;" horiz-adv-x="399" 
d="M249 547h104q0 87 -32 136q-41 61 -130 60q-74 -1 -113 -60q-31 -47 -31 -122q0 -41 38 -167l3 -10h-72v-67h92q15 -52 15 -85q0 -46 -18 -97q-24 -4 -45 -22q-36 -33 -58 -82l71 -39q5 14 14 25q19 25 42 25q15 0 63 -25t70 -25q50 0 83.5 48.5t39.5 137.5l-92 11
q-1 -51 -14 -71q-12 -20 -26 -22q-19 2 -31 11q-17 10 -34 18q28 57 28 107q0 36 -12 85h85v67h-103l-3 12q-34 112 -34 165q0 35 10 55q12 27 34 27q32 0 45 -29q11 -25 11 -67z" />
    <glyph glyph-name="yen" unicode="&#xa5;" horiz-adv-x="352" 
d="M36 233v-67h86v-166h108v166h86v67h-86v67h86v67h-72l96 368h-106l-54 -235l-3 -7h-2l-3 7l-54 235h-106l96 -368h-72v-67h86v-67h-86z" />
    <glyph glyph-name="dieresis" unicode="&#xa8;" horiz-adv-x="500" 
d="M133 735v-98h93v98h-93zM274 735v-98h93v98h-93z" />
    <glyph glyph-name="copyright" unicode="&#xa9;" horiz-adv-x="803" 
d="M26 367q0 -155 110 -265t265 -110q156 0 266 110t110 265q0 156 -110 266t-266 110q-155 0 -265 -110t-110 -266zM84 367q0 131 94 225q93 93 223 93q132 0 225 -93t93 -225q0 -130 -93 -223q-94 -94 -225 -94q-129 0 -223 94t-94 223zM492 299h-67v-61q1 -8 -2 -16
q-6 -15 -22 -15q-9 0 -14 5q-10 9 -10 26v259q0 7 3 15q6 16 21 16q10 0 15 -5q10 -10 9 -26v-61h67v61q-2 27 -12 48q-24 48 -80 48q-36 0 -55 -15q-39 -31 -39 -81v-259q0 -26 11 -48q24 -48 83 -48q35 0 53 15q35 29 39 81v61z" />
    <glyph glyph-name="registered" unicode="&#xae;" horiz-adv-x="803" 
d="M26 367q0 -155 110 -265t265 -110q156 0 266 110t110 265q0 156 -110 266t-266 110q-155 0 -265 -110t-110 -266zM84 367q0 131 94 225q93 93 223 93q132 0 225 -93t93 -225q0 -130 -93 -223q-94 -94 -225 -94q-129 0 -223 94t-94 223zM401 582h-96v-429h71v178h27
l46 -178h74l-52 195q27 23 35 46.5t8 61.5q0 126 -113 126zM376 519h22q30 0 41 -21q7 -14 7 -43q0 -28 -7 -42q-10 -20 -41 -20h-22v126z" />
    <glyph glyph-name="macron" unicode="&#xaf;" horiz-adv-x="500" 
d="M153 721v-79h194v79h-194z" />
    <glyph glyph-name="acute" unicode="&#xb4;" horiz-adv-x="500" 
d="M357 727h-105l-52 -90h78z" />
    <glyph glyph-name="periodcentered" unicode="&#xb7;" horiz-adv-x="105" 
d="M0 428v-111h105v111h-105z" />
    <glyph glyph-name="cedilla" unicode="&#xb8;" horiz-adv-x="500" 
d="M292 -123v69h-84v-69h31l-20 -65h51z" />
    <glyph glyph-name="questiondown" unicode="&#xbf;" horiz-adv-x="315" 
d="M218 436v111h-105v-111h105zM212 349h-93v-125q0 -28 -6 -52q-11 -47 -34 -84q-4 -7 -11 -18.5t-9 -14.5q-39 -67 -39 -107q0 -45 23 -83q33 -56 107 -57q61 -1 107 50q27 30 46 74l-87 41q-6 -23 -21 -43q-19 -28 -43 -28q-20 0 -28 19q-7 14 -5 27q5 20 26 55
q32 54 45 89q22 66 22 132v125z" />
    <glyph glyph-name="Agrave" unicode="&#xc0;" horiz-adv-x="374" 
d="M174 890h-105l79 -90h78zM10 0h105l20 150h104l20 -150h105l-111 735h-132zM193 496l31 -232h-74l31 232l3 19h6z" />
    <glyph glyph-name="Aacute" unicode="&#xc1;" horiz-adv-x="374" 
d="M300 890h-105l-52 -90h78zM10 0h105l20 150h104l20 -150h105l-111 735h-132zM193 496l31 -232h-74l31 232l3 19h6z" />
    <glyph glyph-name="Acircumflex" unicode="&#xc2;" horiz-adv-x="374" 
d="M241 890h-107l-69 -90h92l30 35l31 -35h92zM10 0h105l20 150h104l20 -150h105l-111 735h-132zM193 496l31 -232h-74l31 232l3 19h6z" />
    <glyph glyph-name="Atilde" unicode="&#xc3;" horiz-adv-x="374" 
d="M90 871v-74l4 2t3.5 2t4 2t4.5 2q22 8 37 8q25 -2 45 -10q19 -9 43 -9q11 0 20 3q21 5 33 16v74l-16 -8q-22 -8 -37 -8q-22 1 -44 11q-22 8 -44 8q-11 0 -20 -3q-22 -7 -33 -16zM10 0h105l20 150h104l20 -150h105l-111 735h-132zM193 496l31 -232h-74l31 232l3 19h6z" />
    <glyph glyph-name="Adieresis" unicode="&#xc4;" horiz-adv-x="374" 
d="M70 898v-98h93v98h-93zM211 898v-98h93v98h-93zM10 0h105l20 150h104l20 -150h105l-111 735h-132zM193 496l31 -232h-74l31 232l3 19h6z" />
    <glyph glyph-name="Aring" unicode="&#xc5;" horiz-adv-x="374" 
d="M113 860q0 -30 22 -50t53 -20t52.5 20t21.5 50t-21.5 50t-52.5 20t-53 -20t-22 -50zM151 860q0 14 11.5 24.5t25.5 10.5t25.5 -10.5t11.5 -24.5t-11.5 -24.5t-25.5 -10.5t-25.5 10.5t-11.5 24.5zM10 0h105l20 150h104l20 -150h105l-111 735h-132zM193 496l31 -232h-74
l31 232l3 19h6z" />
    <glyph glyph-name="AE" unicode="&#xc6;" horiz-adv-x="537" 
d="M270 150v-150h247v111h-139v202h100v118h-100v193h139v111h-304l-205 -735h107l44 150h111zM192 264l73 251h5v-251h-78z" />
    <glyph glyph-name="Ccedilla" unicode="&#xc7;" horiz-adv-x="346" 
d="M321 252h-101v-101q0 -18 -4 -27q-9 -27 -37 -27q-13 0 -21 8q-16 17 -17 46v433q2 19 5 27q10 27 33 27q17 0 25 -8q16 -17 16 -46v-101h101v101q-2 45 -18 79q-15 34 -43 55q-33 25 -83 25q-51 0 -84 -25q-26 -20 -42 -55q-16 -34 -18 -79v-433q2 -46 18 -80
q15 -34 42 -54q31 -25 84 -25q52 0 83 25q28 21 43 54q16 34 18 80v101zM215 -123v69h-84v-69h31l-20 -65h51z" />
    <glyph glyph-name="Egrave" unicode="&#xc8;" horiz-adv-x="307" 
d="M159 890h-105l79 -90h78zM40 735v-735h247v111h-139v202h100v118h-100v193h139v111h-247z" />
    <glyph glyph-name="Eacute" unicode="&#xc9;" horiz-adv-x="307" 
d="M272 890h-105l-52 -90h78zM40 735v-735h247v111h-139v202h100v118h-100v193h139v111h-247z" />
    <glyph glyph-name="Ecircumflex" unicode="&#xca;" horiz-adv-x="307" 
d="M217 890h-107l-69 -90h92l30 35l31 -35h92zM40 735v-735h247v111h-139v202h100v118h-100v193h139v111h-247z" />
    <glyph glyph-name="Edieresis" unicode="&#xcb;" horiz-adv-x="307" 
d="M46 898v-98h93v98h-93zM187 898v-98h93v98h-93zM40 735v-735h247v111h-139v202h100v118h-100v193h139v111h-247z" />
    <glyph glyph-name="Igrave" unicode="&#xcc;" horiz-adv-x="196" 
d="M102 890h-105l79 -90h78zM48 735v-735h108v735h-108z" />
    <glyph glyph-name="Iacute" unicode="&#xcd;" horiz-adv-x="196" 
d="M199 890h-105l-52 -90h78zM40 735v-735h108v735h-108z" />
    <glyph glyph-name="Icircumflex" unicode="&#xce;" horiz-adv-x="181" 
d="M144 890h-107l-69 -90h92l30 35l31 -35h92zM36 735v-735h108v735h-108z" />
    <glyph glyph-name="Idieresis" unicode="&#xcf;" horiz-adv-x="182" 
d="M-26 898v-98h93v98h-93zM115 898v-98h93v98h-93zM37 735v-735h108v735h-108z" />
    <glyph glyph-name="Eth" unicode="&#xd0;" horiz-adv-x="372" 
d="M10 431v-111h30v-320h85q76 0 119 17.5t64 58.5q20 39 26 105t6 186t-6 186.5t-26 105.5q-21 41 -64 58.5t-119 17.5h-85v-304h-30zM148 431v196q31 0 46 -7.5t23 -31.5q9 -31 10 -78q1 -35 1 -142t-1 -142q-1 -49 -10 -78q-8 -25 -23 -32.5t-46 -7.5v212h41v111h-41z
" />
    <glyph glyph-name="Ntilde" unicode="&#xd1;" horiz-adv-x="395" 
d="M101 871v-74l4 2t3.5 2t4 2t4.5 2q22 8 37 8q25 -2 45 -10q19 -9 43 -9q11 0 20 3q21 5 33 16v74l-16 -8q-22 -8 -37 -8q-22 1 -44 11q-22 8 -44 8q-11 0 -20 -3q-22 -7 -33 -16zM154 383l105 -383h96v735h-99v-417h-6l-9 34l-105 383h-96v-735h99v417h6z" />
    <glyph glyph-name="Ograve" unicode="&#xd2;" horiz-adv-x="354" 
d="M164 890h-105l79 -90h78zM321 151v433q-2 45 -18 79q-15 34 -43 55q-33 25 -83 25q-51 0 -84 -25q-26 -20 -42 -55q-16 -34 -18 -79v-433q2 -46 18 -80q15 -34 42 -54q31 -25 84 -25q52 0 83 25q28 21 43 54q16 34 18 80zM213 584v-433q0 -18 -4 -27q-7 -27 -32 -27
q-13 0 -21 8q-15 16 -15 46v433q0 16 4 27q8 27 32 27q14 0 22 -8q14 -17 14 -46z" />
    <glyph glyph-name="Oacute" unicode="&#xd3;" horiz-adv-x="354" 
d="M296 890h-105l-52 -90h78zM321 151v433q-2 45 -18 79q-15 34 -43 55q-33 25 -83 25q-51 0 -84 -25q-26 -20 -42 -55q-16 -34 -18 -79v-433q2 -46 18 -80q15 -34 42 -54q31 -25 84 -25q52 0 83 25q28 21 43 54q16 34 18 80zM213 584v-433q0 -18 -4 -27q-7 -27 -32 -27
q-13 0 -21 8q-15 16 -15 46v433q0 16 4 27q8 27 32 27q14 0 22 -8q14 -17 14 -46z" />
    <glyph glyph-name="Ocircumflex" unicode="&#xd4;" horiz-adv-x="354" 
d="M231 890h-107l-69 -90h92l30 35l31 -35h92zM321 151v433q-2 45 -18 79q-15 34 -43 55q-33 25 -83 25q-51 0 -84 -25q-26 -20 -42 -55q-16 -34 -18 -79v-433q2 -46 18 -80q15 -34 42 -54q31 -25 84 -25q52 0 83 25q28 21 43 54q16 34 18 80zM213 584v-433q0 -18 -4 -27
q-7 -27 -32 -27q-13 0 -21 8q-15 16 -15 46v433q0 16 4 27q8 27 32 27q14 0 22 -8q14 -17 14 -46z" />
    <glyph glyph-name="Otilde" unicode="&#xd5;" horiz-adv-x="354" 
d="M80 871v-74l4 2t3.5 2t4 2t4.5 2q22 8 37 8q25 -2 45 -10q20 -9 43 -9q11 0 20 3q21 5 33 16v74l-16 -8q-22 -8 -37 -8q-22 1 -44 11q-22 8 -44 8q-11 0 -20 -3q-22 -7 -33 -16zM321 151v433q-2 45 -18 79q-15 34 -43 55q-33 25 -83 25q-51 0 -84 -25q-26 -20 -42 -55
q-16 -34 -18 -79v-433q2 -46 18 -80q15 -34 42 -54q31 -25 84 -25q52 0 83 25q28 21 43 54q16 34 18 80zM213 584v-433q0 -18 -4 -27q-7 -27 -32 -27q-13 0 -21 8q-15 16 -15 46v433q0 16 4 27q8 27 32 27q14 0 22 -8q14 -17 14 -46z" />
    <glyph glyph-name="Odieresis" unicode="&#xd6;" horiz-adv-x="354" 
d="M60 898v-98h93v98h-93zM201 898v-98h93v98h-93zM321 151v433q-2 45 -18 79q-15 34 -43 55q-33 25 -83 25q-51 0 -84 -25q-26 -20 -42 -55q-16 -34 -18 -79v-433q2 -46 18 -80q15 -34 42 -54q31 -25 84 -25q52 0 83 25q28 21 43 54q16 34 18 80zM213 584v-433
q0 -18 -4 -27q-7 -27 -32 -27q-13 0 -21 8q-15 16 -15 46v433q0 16 4 27q8 27 32 27q14 0 22 -8q14 -17 14 -46z" />
    <glyph glyph-name="Oslash" unicode="&#xd8;" horiz-adv-x="354" 
d="M29 -10h63l7 23q31 -21 78 -21q52 0 83 25q28 21 43 54q16 34 18 80v433q0 13 -3 28q-6 36 -19 60l22 73h-60l-7 -23q-32 21 -77 21q-51 0 -84 -25q-26 -20 -42 -55q-16 -34 -18 -79v-433q0 -9 2 -27q7 -40 17 -57zM141 355v229q0 16 4 27q8 27 32 27q21 0 30 -20
q6 -18 6 -29zM213 389v-238q0 -18 -4 -27q-7 -27 -32 -27q-13 0 -21 8q-15 16 -15 46z" />
    <glyph glyph-name="Ugrave" unicode="&#xd9;" horiz-adv-x="366" 
d="M176 890h-105l79 -90h78zM327 735h-108v-584q0 -18 -4 -27q-7 -27 -32 -27q-13 0 -21 8q-15 16 -15 46v584h-108v-584q2 -46 18 -80q15 -34 42 -54q31 -25 84 -25q52 0 83 25q28 21 43 54q16 34 18 80v584z" />
    <glyph glyph-name="Uacute" unicode="&#xda;" horiz-adv-x="366" 
d="M307 890h-105l-52 -90h78zM327 735h-108v-584q0 -18 -4 -27q-7 -27 -32 -27q-13 0 -21 8q-15 16 -15 46v584h-108v-584q2 -46 18 -80q15 -34 42 -54q31 -25 84 -25q52 0 83 25q28 21 43 54q16 34 18 80v584z" />
    <glyph glyph-name="Ucircumflex" unicode="&#xdb;" horiz-adv-x="366" 
d="M237 890h-107l-69 -90h92l30 35l31 -35h92zM327 735h-108v-584q0 -18 -4 -27q-7 -27 -32 -27q-13 0 -21 8q-15 16 -15 46v584h-108v-584q2 -46 18 -80q15 -34 42 -54q31 -25 84 -25q52 0 83 25q28 21 43 54q16 34 18 80v584z" />
    <glyph glyph-name="Udieresis" unicode="&#xdc;" horiz-adv-x="366" 
d="M66 898v-98h93v98h-93zM207 898v-98h93v98h-93zM327 735h-108v-584q0 -18 -4 -27q-7 -27 -32 -27q-13 0 -21 8q-15 16 -15 46v584h-108v-584q2 -46 18 -80q15 -34 42 -54q31 -25 84 -25q52 0 83 25q28 21 43 54q16 34 18 80v584z" />
    <glyph glyph-name="Yacute" unicode="&#xdd;" horiz-adv-x="344" 
d="M281 890h-105l-52 -90h78zM168 500l-54 235h-106l110 -422v-313h108v313l110 422h-106l-54 -235l-3 -7h-2z" />
    <glyph glyph-name="Thorn" unicode="&#xde;" horiz-adv-x="354" 
d="M40 735v-735h108v176q79 0 130 48q60 57 60 173q0 117 -60 174q-49 46 -130 46h-1v118h-107zM148 286v221q49 0 66 -26q15 -23 15 -88q0 -64 -15 -84q-16 -23 -66 -23z" />
    <glyph glyph-name="germandbls" unicode="&#xdf;" horiz-adv-x="358" 
d="M169 547v-69q35 0 47 -35q15 -42 15 -162q0 -113 -15 -154q-12 -33 -47 -33v-94q87 0 121 49q42 60 42 232q0 107 -20 165q-18 53 -54 73q43 32 43 85q0 60 -32 98q-34 41 -100 41q-65 0 -104 -42q-33 -36 -33 -98v-603h101v603q0 50 36 50q21 0 31.5 -13.5t10.5 -35.5
q0 -26 -12 -41.5t-30 -15.5z" />
    <glyph glyph-name="agrave" unicode="&#xe0;" horiz-adv-x="333" 
d="M155 727h-105l79 -90h78zM193 417v-60q-4 -10 -48 -33q-50 -26 -79 -62q-42 -52 -42 -135q0 -75 31 -110q20 -25 50 -25q29 0 53 19q17 13 28 33h7q0 -33 9 -44h99q-7 42 -7 95v336q0 54 -37 89t-86 35q-59 0 -97 -43q-39 -44 -39 -103v-23h101v26q0 10 2 26q5 29 27 29
q18 0 25 -17q3 -10 3 -33zM193 264v-140q0 -14 -12.5 -23.5t-29.5 -9.5q-16 0 -23 21q-5 14 -5 30q0 92 70 122z" />
    <glyph glyph-name="aacute" unicode="&#xe1;" horiz-adv-x="333" 
d="M286 727h-105l-52 -90h78zM193 417v-60q-4 -10 -48 -33q-50 -26 -79 -62q-42 -52 -42 -135q0 -75 31 -110q20 -25 50 -25q29 0 53 19q17 13 28 33h7q0 -33 9 -44h99q-7 42 -7 95v336q0 54 -37 89t-86 35q-59 0 -97 -43q-39 -44 -39 -103v-23h101v26q0 10 2 26q5 29 27 29
q18 0 25 -17q3 -10 3 -33zM193 264v-140q0 -14 -12.5 -23.5t-29.5 -9.5q-16 0 -23 21q-5 14 -5 30q0 92 70 122z" />
    <glyph glyph-name="acircumflex" unicode="&#xe2;" horiz-adv-x="333" 
d="M220 727h-107l-69 -90h92l30 35l31 -35h92zM193 417v-60q-4 -10 -48 -33q-50 -26 -79 -62q-42 -52 -42 -135q0 -75 31 -110q20 -25 50 -25q29 0 53 19q17 13 28 33h7q0 -33 9 -44h99q-7 42 -7 95v336q0 54 -37 89t-86 35q-59 0 -97 -43q-39 -44 -39 -103v-23h101v26
q0 10 2 26q5 29 27 29q18 0 25 -17q3 -10 3 -33zM193 264v-140q0 -14 -12.5 -23.5t-29.5 -9.5q-16 0 -23 21q-5 14 -5 30q0 92 70 122z" />
    <glyph glyph-name="atilde" unicode="&#xe3;" horiz-adv-x="333" 
d="M70 711v-74l4 2t3.5 2t4 2t4.5 2q22 8 37 8q25 -2 45 -10q20 -9 43 -9q11 0 20 3q21 5 33 16v74l-4 -2t-3.5 -2t-4 -2t-4.5 -2q-22 -8 -37 -8q-22 1 -44 11q-22 8 -44 8q-11 0 -20 -3q-22 -7 -33 -16zM193 417v-60q-4 -10 -48 -33q-50 -26 -79 -62q-42 -52 -42 -135
q0 -75 31 -110q20 -25 50 -25q29 0 53 19q17 13 28 33h7q0 -33 9 -44h99q-7 42 -7 95v336q0 54 -37 89t-86 35q-59 0 -97 -43q-39 -44 -39 -103v-23h101v26q0 10 2 26q5 29 27 29q18 0 25 -17q3 -10 3 -33zM193 264v-140q0 -14 -12.5 -23.5t-29.5 -9.5q-16 0 -23 21
q-5 14 -5 30q0 92 70 122z" />
    <glyph glyph-name="adieresis" unicode="&#xe4;" horiz-adv-x="333" 
d="M50 735v-98h93v98h-93zM191 735v-98h93v98h-93zM193 417v-60q-4 -10 -48 -33q-50 -26 -79 -62q-42 -52 -42 -135q0 -75 31 -110q20 -25 50 -25q29 0 53 19q17 13 28 33h7q0 -33 9 -44h99q-7 42 -7 95v336q0 54 -37 89t-86 35q-59 0 -97 -43q-39 -44 -39 -103v-23h101v26
q0 10 2 26q5 29 27 29q18 0 25 -17q3 -10 3 -33zM193 264v-140q0 -14 -12.5 -23.5t-29.5 -9.5q-16 0 -23 21q-5 14 -5 30q0 92 70 122z" />
    <glyph glyph-name="aring" unicode="&#xe5;" horiz-adv-x="333" 
d="M92 694q0 -30 22 -50t53 -20t52.5 20t21.5 50t-21.5 50t-52.5 20t-53 -20t-22 -50zM130 694q0 14 11.5 24.5t25.5 10.5t25.5 -10.5t11.5 -24.5t-11.5 -24.5t-25.5 -10.5t-25.5 10.5t-11.5 24.5zM193 417v-60q-4 -10 -48 -33q-50 -26 -79 -62q-42 -52 -42 -135
q0 -75 31 -110q20 -25 50 -25q29 0 53 19q17 13 28 33h7q0 -33 9 -44h99q-7 42 -7 95v336q0 54 -37 89t-86 35q-59 0 -97 -43q-39 -44 -39 -103v-23h101v26q0 10 2 26q5 29 27 29q18 0 25 -17q3 -10 3 -33zM193 264v-140q0 -14 -12.5 -23.5t-29.5 -9.5q-16 0 -23 21
q-5 14 -5 30q0 92 70 122z" />
    <glyph glyph-name="ae" unicode="&#xe6;" horiz-adv-x="483" 
d="M454 196h-94v-60q0 -17 -4 -28q-7 -27 -32 -27q-13 0 -21 8q-15 18 -16 47v119h167v159q-1 36 -16 70q-32 71 -114 71q-47 0 -79 -25q-32 25 -74 25q-59 0 -97 -43q-39 -44 -39 -103v-23h101v26q0 10 2 26q5 29 27 29q18 0 25 -17q3 -10 3 -33v-60q-4 -10 -48 -33
q-50 -26 -79 -62q-42 -52 -42 -135q0 -75 31 -110q20 -25 50 -25q58 0 108 64q33 -64 110 -64q50 0 76 22q51 41 55 119v63zM287 334v77q2 19 5 28q9 28 32 28q14 0 22 -8q14 -17 14 -48v-77h-73zM193 264v-140q0 -14 -12.5 -23.5t-29.5 -9.5q-16 0 -23 21q-5 14 -5 30
q0 92 70 122z" />
    <glyph glyph-name="ccedilla" unicode="&#xe7;" horiz-adv-x="315" 
d="M133 126v295q0 44 28 44q17 0 23 -9.5t6 -34.5v-66h101v43q0 88 -33 124q-30 33 -97 33q-60 0 -92 -35q-37 -40 -37 -127v-239q0 -87 37 -127q32 -35 92 -35q67 0 97 33q33 36 33 124v53h-101v-76q0 -25 -6 -34.5t-23 -9.5q-28 0 -28 44zM200 -123v69h-84v-69h31l-20 -65
h51z" />
    <glyph glyph-name="egrave" unicode="&#xe8;" horiz-adv-x="322" 
d="M155 727h-105l79 -90h78zM293 196h-94v-60q0 -17 -4 -28q-7 -27 -32 -27q-13 0 -21 8q-15 18 -16 47v119h167v159q-1 36 -16 70q-32 71 -114 71q-50 0 -75 -22q-52 -43 -56 -122v-275q1 -38 16 -72q32 -72 114 -72q50 0 76 22q51 41 55 119v63zM126 334v77q2 19 5 28
q9 28 32 28q14 0 22 -8q14 -17 14 -48v-77h-73z" />
    <glyph glyph-name="eacute" unicode="&#xe9;" horiz-adv-x="322" 
d="M286 727h-105l-52 -90h78zM293 196h-94v-60q0 -17 -4 -28q-7 -27 -32 -27q-13 0 -21 8q-15 18 -16 47v119h167v159q-1 36 -16 70q-32 71 -114 71q-50 0 -75 -22q-52 -43 -56 -122v-275q1 -38 16 -72q32 -72 114 -72q50 0 76 22q51 41 55 119v63zM126 334v77q2 19 5 28
q9 28 32 28q14 0 22 -8q14 -17 14 -48v-77h-73z" />
    <glyph glyph-name="ecircumflex" unicode="&#xea;" horiz-adv-x="322" 
d="M215 727h-107l-69 -90h92l30 35l31 -35h92zM293 196h-94v-60q0 -17 -4 -28q-7 -27 -32 -27q-13 0 -21 8q-15 18 -16 47v119h167v159q-1 36 -16 70q-32 71 -114 71q-50 0 -75 -22q-52 -43 -56 -122v-275q1 -38 16 -72q32 -72 114 -72q50 0 76 22q51 41 55 119v63zM126 334
v77q2 19 5 28q9 28 32 28q14 0 22 -8q14 -17 14 -48v-77h-73z" />
    <glyph glyph-name="edieresis" unicode="&#xeb;" horiz-adv-x="322" 
d="M44 735v-98h93v98h-93zM185 735v-98h93v98h-93zM293 196h-94v-60q0 -17 -4 -28q-7 -27 -32 -27q-13 0 -21 8q-15 18 -16 47v119h167v159q-1 36 -16 70q-32 71 -114 71q-50 0 -75 -22q-52 -43 -56 -122v-275q1 -38 16 -72q32 -72 114 -72q50 0 76 22q51 41 55 119v63z
M126 334v77q2 19 5 28q9 28 32 28q14 0 22 -8q14 -17 14 -48v-77h-73z" />
    <glyph glyph-name="igrave" unicode="&#xec;" horiz-adv-x="181" 
d="M89 727h-105l79 -90h78zM40 0h101v547h-101v-547z" />
    <glyph glyph-name="iacute" unicode="&#xed;" horiz-adv-x="181" 
d="M197 727h-105l-52 -90h78zM40 0h101v547h-101v-547z" />
    <glyph glyph-name="icircumflex" unicode="&#xee;" horiz-adv-x="181" 
d="M144 727h-107l-69 -90h92l30 35l31 -35h92zM40 0h101v547h-101v-547z" />
    <glyph glyph-name="idieresis" unicode="&#xef;" horiz-adv-x="182" 
d="M-26 735v-98h93v98h-93zM115 735v-98h93v98h-93zM40 0h101v547h-101v-547z" />
    <glyph glyph-name="eth" unicode="&#xf0;" horiz-adv-x="329" 
d="M185 736l-53 -49q1 -3 6 -8q4 -4 16 -24l-49 -43l27 -31l40 35q18 -41 25 -99q-45 38 -76 38q-55 0 -74 -60q-10 -32 -10 -76v-283q1 -38 16 -72q32 -72 113 -72q50 0 76 22q50 41 54 119v320q0 124 -61 218l49 43l-27 32l-46 -40l-9 12l-9 9q-2 1 -4.5 4t-3.5 5z
M201 411v-275q1 -16 -3 -28q-7 -27 -32 -27q-13 0 -21 8q-14 18 -13 47v275q-1 16 3 28q7 28 31 28q14 0 22 -8q14 -17 13 -48z" />
    <glyph glyph-name="ntilde" unicode="&#xf1;" 
d="M72 711v-74l4 2t3.5 2t4 2t4.5 2q22 8 37 8q25 -2 45 -10q19 -9 43 -9q11 0 20 3q21 5 33 16v74l-4 -2t-3.5 -2t-4 -2t-4.5 -2q-22 -8 -37 -8q-22 1 -44 11q-22 8 -44 8q-11 0 -20 -3q-22 -7 -33 -16zM141 0v431q3 5 9 13q13 13 24 13q24 0 24 -24v-433h101v448
q0 40 -18 71q-22 36 -58 36q-13 0 -26 -7q-18 -10 -44 -36q-10 -10 -12 -11v46h-101v-547h101z" />
    <glyph glyph-name="ograve" unicode="&#xf2;" horiz-adv-x="321" 
d="M153 727h-105l79 -90h78zM290 133v281q-1 36 -16 70q-32 71 -114 71q-50 0 -75 -22q-49 -42 -54 -122v-275q1 -38 16 -72q32 -72 113 -72q50 0 76 22q50 41 54 119zM195 411v-275q1 -16 -3 -28q-7 -27 -32 -27q-13 0 -21 8q-14 18 -13 47v275q-1 16 3 28q7 28 31 28
q14 0 22 -8q14 -17 13 -48z" />
    <glyph glyph-name="oacute" unicode="&#xf3;" horiz-adv-x="321" 
d="M284 727h-105l-52 -90h78zM290 133v281q-1 36 -16 70q-32 71 -114 71q-50 0 -75 -22q-49 -42 -54 -122v-275q1 -38 16 -72q32 -72 113 -72q50 0 76 22q50 41 54 119zM195 411v-275q1 -16 -3 -28q-7 -27 -32 -27q-13 0 -21 8q-14 18 -13 47v275q-1 16 3 28q7 28 31 28
q14 0 22 -8q14 -17 13 -48z" />
    <glyph glyph-name="ocircumflex" unicode="&#xf4;" horiz-adv-x="321" 
d="M214 727h-107l-69 -90h92l30 35l31 -35h92zM290 133v281q-1 36 -16 70q-32 71 -114 71q-50 0 -75 -22q-49 -42 -54 -122v-275q1 -38 16 -72q32 -72 113 -72q50 0 76 22q50 41 54 119zM195 411v-275q1 -16 -3 -28q-7 -27 -32 -27q-13 0 -21 8q-14 18 -13 47v275
q-1 16 3 28q7 28 31 28q14 0 22 -8q14 -17 13 -48z" />
    <glyph glyph-name="otilde" unicode="&#xf5;" horiz-adv-x="321" 
d="M64 711v-74l4 2t3.5 2t4 2t4.5 2q22 8 37 8q25 -2 45 -10q19 -9 43 -9q11 0 20 3q21 5 33 16v74l-16 -8q-22 -8 -37 -8q-22 1 -44 11q-22 8 -44 8q-11 0 -20 -3q-22 -7 -33 -16zM290 133v281q-1 36 -16 70q-32 71 -114 71q-50 0 -75 -22q-49 -42 -54 -122v-275
q1 -38 16 -72q32 -72 113 -72q50 0 76 22q50 41 54 119zM195 411v-275q1 -16 -3 -28q-7 -27 -32 -27q-13 0 -21 8q-14 18 -13 47v275q-1 16 3 28q7 28 31 28q14 0 22 -8q14 -17 13 -48z" />
    <glyph glyph-name="odieresis" unicode="&#xf6;" horiz-adv-x="321" 
d="M44 735v-98h93v98h-93zM185 735v-98h93v98h-93zM290 133v281q-1 36 -16 70q-32 71 -114 71q-50 0 -75 -22q-49 -42 -54 -122v-275q1 -38 16 -72q32 -72 113 -72q50 0 76 22q50 41 54 119zM195 411v-275q1 -16 -3 -28q-7 -27 -32 -27q-13 0 -21 8q-14 18 -13 47v275
q-1 16 3 28q7 28 31 28q14 0 22 -8q14 -17 13 -48z" />
    <glyph glyph-name="oslash" unicode="&#xf8;" horiz-adv-x="321" 
d="M61 -38h39l10 38q24 -8 50 -8q50 0 76 22q50 41 54 119v281q-2 22 -6 41q-15 48 -40 71l15 59h-37l-10 -39q-27 9 -52 9q-50 0 -75 -22q-49 -42 -54 -122v-275q0 -20 5 -42q9 -45 40 -73zM126 213v198q-1 16 3 28q7 28 31 28q19 0 27 -17zM195 333v-197q1 -16 -3 -28
q-7 -27 -32 -27q-18 0 -26 15z" />
    <glyph glyph-name="ugrave" unicode="&#xf9;" 
d="M160 727h-105l79 -90h78zM196 547v-431q-6 -10 -9 -13q-13 -13 -24 -13q-24 0 -24 24v433h-101v-448q0 -40 18 -70q21 -37 58 -37q13 0 27 8q18 10 44 36q9 9 11 10v-46h101v547h-101z" />
    <glyph glyph-name="uacute" unicode="&#xfa;" 
d="M291 727h-105l-52 -90h78zM196 547v-431q-6 -10 -9 -13q-13 -13 -24 -13q-24 0 -24 24v433h-101v-448q0 -40 18 -70q21 -37 58 -37q13 0 27 8q18 10 44 36q9 9 11 10v-46h101v547h-101z" />
    <glyph glyph-name="ucircumflex" unicode="&#xfb;" 
d="M222 727h-107l-69 -90h92l30 35l31 -35h92zM196 547v-431q-6 -10 -9 -13q-13 -13 -24 -13q-24 0 -24 24v433h-101v-448q0 -40 18 -70q21 -37 58 -37q13 0 27 8q18 10 44 36q9 9 11 10v-46h101v547h-101z" />
    <glyph glyph-name="udieresis" unicode="&#xfc;" 
d="M52 735v-98h93v98h-93zM193 735v-98h93v98h-93zM196 547v-431q-6 -10 -9 -13q-13 -13 -24 -13q-24 0 -24 24v433h-101v-448q0 -40 18 -70q21 -37 58 -37q13 0 27 8q18 10 44 36q9 9 11 10v-46h101v547h-101z" />
    <glyph glyph-name="yacute" unicode="&#xfd;" horiz-adv-x="310" 
d="M270 727h-105l-52 -90h78zM16 -104v-90q24 -2 33 -2h12q55 0 96 49q36 43 44 106l97 588h-99l-40 -336l-2 -28h-4l-2 28l-40 336h-99l93 -563q0 -17 -4 -30q-9 -32 -33 -50q-19 -14 -46 -9q-5 0 -6 1z" />
    <glyph glyph-name="thorn" unicode="&#xfe;" horiz-adv-x="335" 
d="M40 735v-923h101v224q16 -14 26 -22q30 -22 54 -22q37 0 60 37q18 30 18 70v349q0 40 -18 71q-23 36 -60 36q-15 0 -28 -7q-24 -11 -52 -37v224h-101zM141 120v307q0 14 9 23.5t21 9.5q11 0 19 -9.5t8 -23.5v-307q0 -14 -8 -23.5t-19 -9.5t-20.5 10.5t-9.5 22.5z" />
    <glyph glyph-name="ydieresis" unicode="&#xff;" horiz-adv-x="310" 
d="M38 735v-98h93v98h-93zM179 735v-98h93v98h-93zM16 -104v-90q24 -2 33 -2h12q55 0 96 49q36 43 44 106l97 588h-99l-40 -336l-2 -28h-4l-2 28l-40 336h-99l93 -563q0 -17 -4 -30q-9 -32 -33 -50q-19 -14 -46 -9q-5 0 -6 1z" />
    <glyph glyph-name="Amacron" unicode="&#x100;" horiz-adv-x="374" 
d="M91 909v-79h194v79h-194zM10 0h105l20 150h104l20 -150h105l-111 735h-132zM193 496l31 -232h-74l31 232l3 19h6z" />
    <glyph glyph-name="amacron" unicode="&#x101;" horiz-adv-x="333" 
d="M71 721v-79h194v79h-194zM193 417v-60q-4 -10 -48 -33q-50 -26 -79 -62q-42 -52 -42 -135q0 -75 31 -110q20 -25 50 -25q29 0 53 19q17 13 28 33h7q0 -33 9 -44h99q-7 42 -7 95v336q0 54 -37 89t-86 35q-59 0 -97 -43q-39 -44 -39 -103v-23h101v26q0 10 2 26q5 29 27 29
q18 0 25 -17q3 -10 3 -33zM193 264v-140q0 -14 -12.5 -23.5t-29.5 -9.5q-16 0 -23 21q-5 14 -5 30q0 92 70 122z" />
    <glyph glyph-name="Abreve" unicode="&#x102;" horiz-adv-x="374" 
d="M298 871l-52 46q-6 -7 -15 -12q-17 -11 -43 -11q-14 0 -24 3q-21 6 -32 20l-54 -46q11 -13 29 -24q36 -23 81 -23q28 0 46 7q36 12 64 40zM10 0h105l20 150h104l20 -150h105l-111 735h-132zM193 496l31 -232h-74l31 232l3 19h6z" />
    <glyph glyph-name="abreve" unicode="&#x103;" horiz-adv-x="333" 
d="M278 683l-52 46q-6 -7 -15 -12q-17 -11 -43 -11q-14 0 -24 3q-21 6 -32 20l-54 -46q11 -13 29 -24q36 -23 81 -23q28 0 46 7q36 12 64 40zM193 417v-60q-4 -10 -48 -33q-50 -26 -79 -62q-42 -52 -42 -135q0 -75 31 -110q20 -25 50 -25q29 0 53 19q17 13 28 33h7
q0 -33 9 -44h99q-7 42 -7 95v336q0 54 -37 89t-86 35q-59 0 -97 -43q-39 -44 -39 -103v-23h101v26q0 10 2 26q5 29 27 29q18 0 25 -17q3 -10 3 -33zM193 264v-140q0 -14 -12.5 -23.5t-29.5 -9.5q-16 0 -23 21q-5 14 -5 30q0 92 70 122z" />
    <glyph glyph-name="Aogonek" unicode="&#x104;" horiz-adv-x="374" 
d="M364 0h-47q-26 -23 -38 -50q-7 -14 -7 -33q0 -38 50 -38q20 0 42 9l-8 -67q-27 -9 -51 -9q-47 0 -74.5 25t-27.5 60t33 72q15 19 33 31h-10l-20 150h-104l-20 -150h-105l111 735h132zM150 264h74l-31 232l-3 19h-6l-3 -19z" />
    <glyph glyph-name="aogonek" unicode="&#x105;" horiz-adv-x="333" 
d="M301 0h-46q-26 -23 -38 -50q-7 -14 -7 -33q0 -38 50 -38q20 0 42 9l-8 -67q-27 -9 -51 -9q-47 0 -74.5 25t-27.5 60t33 72q15 19 33 31h-5q-9 11 -9 44h-7q-11 -20 -28 -33q-24 -19 -53 -19q-30 0 -50 25q-31 35 -31 110q0 83 42 135q29 36 79 62q44 23 48 33v60
q0 23 -3 33q-7 17 -25 17q-22 0 -27 -29q-2 -16 -2 -26v-26h-101v23q0 59 39 103q38 43 97 43q49 0 86 -35t37 -89v-336q0 -53 7 -95zM193 124v140q-70 -30 -70 -122q0 -16 5 -30q7 -21 23 -21q17 0 29.5 9.5t12.5 23.5z" />
    <glyph glyph-name="Cacute" unicode="&#x106;" horiz-adv-x="346" 
d="M253 915h-105l-52 -90h78zM321 252h-101v-101q0 -18 -4 -27q-9 -27 -37 -27q-13 0 -21 8q-16 17 -17 46v433q2 19 5 27q10 27 33 27q17 0 25 -8q16 -17 16 -46v-101h101v101q-2 45 -18 79q-15 34 -43 55q-33 25 -83 25q-51 0 -84 -25q-26 -20 -42 -55q-16 -34 -18 -79
v-433q2 -46 18 -80q15 -34 42 -54q31 -25 84 -25q52 0 83 25q28 21 43 54q16 34 18 80v101z" />
    <glyph glyph-name="cacute" unicode="&#x107;" horiz-adv-x="315" 
d="M237 727h-105l-52 -90h78zM133 126v295q0 44 28 44q17 0 23 -9.5t6 -34.5v-66h101v43q0 88 -33 124q-30 33 -97 33q-60 0 -92 -35q-37 -40 -37 -127v-239q0 -87 37 -127q32 -35 92 -35q67 0 97 33q33 36 33 124v53h-101v-76q0 -25 -6 -34.5t-23 -9.5q-28 0 -28 44z" />
    <glyph glyph-name="Ccircumflex" unicode="&#x108;" horiz-adv-x="346" 
d="M228 915h-107l-69 -90h92l30 35l31 -35h92zM321 252h-101v-101q0 -18 -4 -27q-9 -27 -37 -27q-13 0 -21 8q-16 17 -17 46v433q2 19 5 27q10 27 33 27q17 0 25 -8q16 -17 16 -46v-101h101v101q-2 45 -18 79q-15 34 -43 55q-33 25 -83 25q-51 0 -84 -25q-26 -20 -42 -55
q-16 -34 -18 -79v-433q2 -46 18 -80q15 -34 42 -54q31 -25 84 -25q52 0 83 25q28 21 43 54q16 34 18 80v101z" />
    <glyph glyph-name="ccircumflex" unicode="&#x109;" horiz-adv-x="315" 
d="M212 727h-107l-69 -90h92l30 35l31 -35h92zM133 126v295q0 44 28 44q17 0 23 -9.5t6 -34.5v-66h101v43q0 88 -33 124q-30 33 -97 33q-60 0 -92 -35q-37 -40 -37 -127v-239q0 -87 37 -127q32 -35 92 -35q67 0 97 33q33 36 33 124v53h-101v-76q0 -25 -6 -34.5t-23 -9.5
q-28 0 -28 44z" />
    <glyph glyph-name="Cdotaccent" unicode="&#x10a;" horiz-adv-x="346" 
d="M124 923v-101h101v101h-101zM321 252h-101v-101q0 -18 -4 -27q-9 -27 -37 -27q-13 0 -21 8q-16 17 -17 46v433q2 19 5 27q10 27 33 27q17 0 25 -8q16 -17 16 -46v-101h101v101q-2 45 -18 79q-15 34 -43 55q-33 25 -83 25q-51 0 -84 -25q-26 -20 -42 -55q-16 -34 -18 -79
v-433q2 -46 18 -80q15 -34 42 -54q31 -25 84 -25q52 0 83 25q28 21 43 54q16 34 18 80v101z" />
    <glyph glyph-name="cdotaccent" unicode="&#x10b;" horiz-adv-x="315" 
d="M108 735v-101h101v101h-101zM133 126v295q0 44 28 44q17 0 23 -9.5t6 -34.5v-66h101v43q0 88 -33 124q-30 33 -97 33q-60 0 -92 -35q-37 -40 -37 -127v-239q0 -87 37 -127q32 -35 92 -35q67 0 97 33q33 36 33 124v53h-101v-76q0 -25 -6 -34.5t-23 -9.5q-28 0 -28 44z" />
    <glyph glyph-name="Ccaron" unicode="&#x10c;" horiz-adv-x="346" 
d="M121 825h107l69 90h-92l-31 -35l-30 35h-92zM321 252h-101v-101q0 -18 -4 -27q-9 -27 -37 -27q-13 0 -21 8q-16 17 -17 46v433q2 19 5 27q10 27 33 27q17 0 25 -8q16 -17 16 -46v-101h101v101q-2 45 -18 79q-15 34 -43 55q-33 25 -83 25q-51 0 -84 -25q-26 -20 -42 -55
q-16 -34 -18 -79v-433q2 -46 18 -80q15 -34 42 -54q31 -25 84 -25q52 0 83 25q28 21 43 54q16 34 18 80v101z" />
    <glyph glyph-name="ccaron" unicode="&#x10d;" horiz-adv-x="315" 
d="M105 637h107l69 90h-92l-31 -35l-30 35h-92zM133 126v295q0 44 28 44q17 0 23 -9.5t6 -34.5v-66h101v43q0 88 -33 124q-30 33 -97 33q-60 0 -92 -35q-37 -40 -37 -127v-239q0 -87 37 -127q32 -35 92 -35q67 0 97 33q33 36 33 124v53h-101v-76q0 -25 -6 -34.5t-23 -9.5
q-28 0 -28 44z" />
    <glyph glyph-name="Dcaron" unicode="&#x10e;" horiz-adv-x="372" 
d="M134 825h107l69 90h-92l-31 -35l-30 35h-92zM40 0h85q76 0 119 17.5t64 58.5q20 39 26 105t6 186t-6 186.5t-26 105.5q-21 41 -64 58.5t-119 17.5h-85v-735zM148 108v519q31 0 46 -7.5t23 -31.5q9 -31 10 -78q1 -35 1 -142t-1 -142q-1 -49 -10 -78q-8 -25 -23 -32.5
t-46 -7.5z" />
    <glyph glyph-name="dcaron" unicode="&#x10f;" horiz-adv-x="486" 
d="M295 0v735h-101v-224q-16 14 -26 22q-30 22 -54 22q-37 0 -59 -36q-19 -31 -19 -71v-349q0 -41 19 -70q21 -37 59 -37q15 0 29 7q24 11 51 37v-36h101zM462 624v111h-105v-111h35l-35 -130h50zM194 427v-307q0 -14 -9 -23.5t-21 -9.5q-11 0 -19 9.5t-8 23.5v307
q0 14 8 23.5t19 9.5t20.5 -10.5t9.5 -22.5z" />
    <glyph glyph-name="Dcroat" unicode="&#x110;" horiz-adv-x="372" 
d="M40 735h85q76 0 119 -17.5t64 -58.5q20 -39 26 -105.5t6 -186.5t-6 -186t-26 -105q-21 -41 -64 -58.5t-119 -17.5h-85v331h-59v79h59v325zM148 331v-223q31 0 46 7.5t23 32.5q9 29 10 78q1 35 1 142t-1 142q-1 47 -10 78q-8 24 -23 31.5t-46 7.5v-217h27v-79h-27z" />
    <glyph glyph-name="dcroat" unicode="&#x111;" horiz-adv-x="335" 
d="M318 692v-95h-23v-597h-101v36q-27 -26 -51 -37q-14 -7 -29 -7q-38 0 -59 37q-19 29 -19 70v349q0 40 19 71q22 36 59 36q24 0 54 -22q10 -8 26 -22v86h-21v95h21v43h101v-43h23zM194 120v307q0 12 -9.5 22.5t-20.5 10.5t-19 -9.5t-8 -23.5v-307q0 -14 8 -23.5t19 -9.5
q12 0 21 9.5t9 23.5z" />
    <glyph glyph-name="Emacron" unicode="&#x112;" horiz-adv-x="307" 
d="M58 909v-79h194v79h-194zM40 735v-735h247v111h-139v202h100v118h-100v193h139v111h-247z" />
    <glyph glyph-name="emacron" unicode="&#x113;" horiz-adv-x="322" 
d="M65 721v-79h194v79h-194zM293 196h-94v-60q0 -17 -4 -28q-7 -27 -32 -27q-13 0 -21 8q-15 18 -16 47v119h167v159q-1 36 -16 70q-32 71 -114 71q-50 0 -75 -22q-52 -43 -56 -122v-275q1 -38 16 -72q32 -72 114 -72q50 0 76 22q51 41 55 119v63zM126 334v77q2 19 5 28
q9 28 32 28q14 0 22 -8q14 -17 14 -48v-77h-73z" />
    <glyph glyph-name="Ebreve" unicode="&#x114;" horiz-adv-x="307" 
d="M265 871l-52 46q-6 -7 -15 -12q-17 -11 -43 -11q-13 0 -24 3q-21 6 -32 20l-54 -46q11 -13 29 -24q36 -23 81 -23q28 0 46 7q36 12 64 40zM40 735v-735h247v111h-139v202h100v118h-100v193h139v111h-247z" />
    <glyph glyph-name="ebreve" unicode="&#x115;" horiz-adv-x="322" 
d="M272 683l-52 46q-6 -7 -15 -12q-17 -11 -43 -11q-14 0 -24 3q-21 6 -32 20l-54 -46q11 -13 29 -24q36 -23 81 -23q28 0 46 7q36 12 64 40zM293 196h-94v-60q0 -17 -4 -28q-7 -27 -32 -27q-13 0 -21 8q-15 18 -16 47v119h167v159q-1 36 -16 70q-32 71 -114 71
q-50 0 -75 -22q-52 -43 -56 -122v-275q1 -38 16 -72q32 -72 114 -72q50 0 76 22q51 41 55 119v63zM126 334v77q2 19 5 28q9 28 32 28q14 0 22 -8q14 -17 14 -48v-77h-73z" />
    <glyph glyph-name="Edotaccent" unicode="&#x116;" horiz-adv-x="307" 
d="M104 923v-101h101v101h-101zM40 735v-735h247v111h-139v202h100v118h-100v193h139v111h-247z" />
    <glyph glyph-name="edotaccent" unicode="&#x117;" horiz-adv-x="322" 
d="M112 735v-101h101v101h-101zM293 196h-94v-60q0 -17 -4 -28q-7 -27 -32 -27q-13 0 -21 8q-15 18 -16 47v119h167v159q-1 36 -16 70q-32 71 -114 71q-50 0 -75 -22q-52 -43 -56 -122v-275q1 -38 16 -72q32 -72 114 -72q50 0 76 22q51 41 55 119v63zM126 334v77q2 19 5 28
q9 28 32 28q14 0 22 -8q14 -17 14 -48v-77h-73z" />
    <glyph glyph-name="Eogonek" unicode="&#x118;" horiz-adv-x="307" 
d="M287 0h-46q-26 -23 -38 -50q-7 -14 -7 -33q0 -38 50 -38q20 0 42 9l-8 -67q-27 -9 -51 -9q-47 0 -74.5 25t-27.5 60t33 72q15 19 33 31h-153v735h247v-111h-139v-193h100v-118h-100v-202h139v-111z" />
    <glyph glyph-name="eogonek" unicode="&#x119;" horiz-adv-x="322" 
d="M214 0h34q-26 -23 -38 -50q-7 -14 -7 -33q0 -38 50 -38q20 0 42 9l-8 -67q-27 -9 -51 -9q-47 0 -74.5 25t-27.5 60t33 72q11 14 25 25q-18 -2 -30 -2q-82 0 -114 72q-15 34 -16 72v275q4 79 56 122q25 22 75 22q82 0 114 -71q15 -34 16 -70v-159h-167v-119q1 -29 16 -47
q8 -8 21 -8q25 0 32 27q4 11 4 28v60h94v-63q-4 -78 -55 -119q-11 -10 -24 -14zM126 411v-77h73v77q0 31 -14 48q-8 8 -22 8q-23 0 -32 -28q-3 -9 -5 -28z" />
    <glyph glyph-name="Ecaron" unicode="&#x11a;" horiz-adv-x="307" 
d="M101 825h107l69 90h-92l-31 -35l-30 35h-92zM40 735v-735h247v111h-139v202h100v118h-100v193h139v111h-247z" />
    <glyph glyph-name="ecaron" unicode="&#x11b;" horiz-adv-x="322" 
d="M109 637h107l69 90h-92l-31 -35l-30 35h-92zM293 196h-94v-60q0 -17 -4 -28q-7 -27 -32 -27q-13 0 -21 8q-15 18 -16 47v119h167v159q-1 36 -16 70q-32 71 -114 71q-50 0 -75 -22q-52 -43 -56 -122v-275q1 -38 16 -72q32 -72 114 -72q50 0 76 22q51 41 55 119v63z
M126 334v77q2 19 5 28q9 28 32 28q14 0 22 -8q14 -17 14 -48v-77h-73z" />
    <glyph glyph-name="Gcircumflex" unicode="&#x11c;" horiz-adv-x="360" 
d="M235 915h-107l-69 -90h92l30 35l31 -35h92zM213 471h108v113q-2 45 -18 79q-15 34 -43 55q-33 25 -83 25q-51 0 -84 -25q-26 -20 -42 -55q-16 -34 -18 -79v-433q-2 -45 12 -80q13 -34 38 -54q28 -25 77 -25q50 0 84 43l13 -35h64v366h-151v-91h43v-133q0 -18 -4 -27
q-7 -27 -32 -27q-13 0 -21 8q-15 16 -15 46v442q0 16 4 27q8 27 32 27q14 0 22 -8q14 -17 14 -46v-113z" />
    <glyph glyph-name="gcircumflex" unicode="&#x11d;" horiz-adv-x="342" 
d="M226 727h-107l-69 -90h92l30 35l31 -35h92zM287 264v155q0 7 -1 10t-1 11q-1 3 -3 13q21 12 59 12v90q-21 0 -48 -20q-16 -11 -35 -30q-35 50 -101 50q-48 0 -73 -22q-49 -41 -55 -117v-149q1 -20 8 -45q14 -51 50 -74q-24 -13 -42 -35q-21 -26 -21 -47q0 -56 61 -73
q-36 -17 -54 -34q-25 -23 -25 -49q0 -57 45 -82q39 -22 117 -24q71 0 118 30q55 36 55 110q0 64 -46 96q-35 24 -94 31q-36 6 -52 11q-25 7 -25 23q0 13 14 25q3 -1 10 -1h9q47 0 74 21q52 40 56 114zM188 412v-150q0 -14 -3 -25q-8 -24 -28 -24q-12 0 -18 8q-12 14 -11 41
v150q-1 13 2 25q6 25 27 25q13 0 19 -8q12 -16 12 -42zM141 -25l52 -10q34 -5 46 -16q8 -8 8 -23q0 -18 -26 -28q-23 -9 -51 -9q-66 0 -66 38q0 27 37 48z" />
    <glyph glyph-name="Gbreve" unicode="&#x11e;" horiz-adv-x="360" 
d="M291 871l-52 46q-6 -7 -15 -12q-17 -11 -43 -11q-13 0 -24 3q-21 6 -32 20l-54 -46q11 -13 29 -24q36 -23 81 -23q28 0 46 7q36 12 64 40zM213 471h108v113q-2 45 -18 79q-15 34 -43 55q-33 25 -83 25q-51 0 -84 -25q-26 -20 -42 -55q-16 -34 -18 -79v-433q-2 -45 12 -80
q13 -34 38 -54q28 -25 77 -25q50 0 84 43l13 -35h64v366h-151v-91h43v-133q0 -18 -4 -27q-7 -27 -32 -27q-13 0 -21 8q-15 16 -15 46v442q0 16 4 27q8 27 32 27q14 0 22 -8q14 -17 14 -46v-113z" />
    <glyph glyph-name="gbreve" unicode="&#x11f;" horiz-adv-x="342" 
d="M282 683l-52 46q-6 -7 -15 -12q-17 -11 -43 -11q-14 0 -24 3q-21 6 -32 20l-54 -46q11 -13 29 -24q36 -23 81 -23q28 0 46 7q36 12 64 40zM287 264v155q0 7 -1 10t-1 11q-1 3 -3 13q21 12 59 12v90q-21 0 -48 -20q-16 -11 -35 -30q-35 50 -101 50q-48 0 -73 -22
q-49 -41 -55 -117v-149q1 -20 8 -45q14 -51 50 -74q-24 -13 -42 -35q-21 -26 -21 -47q0 -56 61 -73q-36 -17 -54 -34q-25 -23 -25 -49q0 -57 45 -82q39 -22 117 -24q71 0 118 30q55 36 55 110q0 64 -46 96q-35 24 -94 31q-36 6 -52 11q-25 7 -25 23q0 13 14 25q3 -1 10 -1h9
q47 0 74 21q52 40 56 114zM188 412v-150q0 -14 -3 -25q-8 -24 -28 -24q-12 0 -18 8q-12 14 -11 41v150q-1 13 2 25q6 25 27 25q13 0 19 -8q12 -16 12 -42zM141 -25l52 -10q34 -5 46 -16q8 -8 8 -23q0 -18 -26 -28q-23 -9 -51 -9q-66 0 -66 38q0 27 37 48z" />
    <glyph glyph-name="Gdotaccent" unicode="&#x120;" horiz-adv-x="360" 
d="M131 923v-101h101v101h-101zM213 471h108v113q-2 45 -18 79q-15 34 -43 55q-33 25 -83 25q-51 0 -84 -25q-26 -20 -42 -55q-16 -34 -18 -79v-433q-2 -45 12 -80q13 -34 38 -54q28 -25 77 -25q50 0 84 43l13 -35h64v366h-151v-91h43v-133q0 -18 -4 -27q-7 -27 -32 -27
q-13 0 -21 8q-15 16 -15 46v442q0 16 4 27q8 27 32 27q14 0 22 -8q14 -17 14 -46v-113z" />
    <glyph glyph-name="gdotaccent" unicode="&#x121;" horiz-adv-x="342" 
d="M122 735v-101h101v101h-101zM287 264v155q0 7 -1 10t-1 11q-1 3 -3 13q21 12 59 12v90q-21 0 -48 -20q-16 -11 -35 -30q-35 50 -101 50q-48 0 -73 -22q-49 -41 -55 -117v-149q1 -20 8 -45q14 -51 50 -74q-24 -13 -42 -35q-21 -26 -21 -47q0 -56 61 -73q-36 -17 -54 -34
q-25 -23 -25 -49q0 -57 45 -82q39 -22 117 -24q71 0 118 30q55 36 55 110q0 64 -46 96q-35 24 -94 31q-36 6 -52 11q-25 7 -25 23q0 13 14 25q3 -1 10 -1h9q47 0 74 21q52 40 56 114zM188 412v-150q0 -14 -3 -25q-8 -24 -28 -24q-12 0 -18 8q-12 14 -11 41v150q-1 13 2 25
q6 25 27 25q13 0 19 -8q12 -16 12 -42zM141 -25l52 -10q34 -5 46 -16q8 -8 8 -23q0 -18 -26 -28q-23 -9 -51 -9q-66 0 -66 38q0 27 37 48z" />
    <glyph glyph-name="Gcommaaccent" unicode="&#x122;" horiz-adv-x="360" 
d="M213 471h108v113q-2 45 -18 79q-15 34 -43 55q-33 25 -83 25q-51 0 -84 -25q-26 -20 -42 -55q-16 -34 -18 -79v-433q-2 -45 12 -80q13 -34 38 -54q28 -25 77 -25q50 0 84 43l13 -35h64v366h-151v-91h43v-133q0 -18 -4 -27q-7 -27 -32 -27q-13 0 -21 8q-15 16 -15 46v442
q0 16 4 27q8 27 32 27q14 0 22 -8q14 -17 14 -46v-113zM215 -123v69h-84v-69h31l-20 -65h51z" />
    <glyph glyph-name="gcommaaccent" unicode="&#x123;" horiz-adv-x="342" 
d="M118 793v-111h105v111h-35l35 130h-50zM287 264v155q0 7 -1 10t-1 11q-1 3 -3 13q21 12 59 12v90q-21 0 -48 -20q-16 -11 -35 -30q-35 50 -101 50q-48 0 -73 -22q-49 -41 -55 -117v-149q1 -20 8 -45q14 -51 50 -74q-24 -13 -42 -35q-21 -26 -21 -47q0 -56 61 -73
q-36 -17 -54 -34q-25 -23 -25 -49q0 -57 45 -82q39 -22 117 -24q71 0 118 30q55 36 55 110q0 64 -46 96q-35 24 -94 31q-36 6 -52 11q-25 7 -25 23q0 13 14 25q3 -1 10 -1h9q47 0 74 21q52 40 56 114zM188 412v-150q0 -14 -3 -25q-8 -24 -28 -24q-12 0 -18 8q-12 14 -11 41
v150q-1 13 2 25q6 25 27 25q13 0 19 -8q12 -16 12 -42zM141 -25l52 -10q34 -5 46 -16q8 -8 8 -23q0 -18 -26 -28q-23 -9 -51 -9q-66 0 -66 38q0 27 37 48z" />
    <glyph glyph-name="Hcircumflex" unicode="&#x124;" horiz-adv-x="380" 
d="M245 915h-107l-69 -90h92l30 35l31 -35h92zM232 320v-320h108v735h-108v-304h-84v304h-108v-735h108v320h84z" />
    <glyph glyph-name="hcircumflex" unicode="&#x125;" 
d="M141 639v-138q2 1 12 11q26 26 44 36q13 7 26 7q36 0 58 -36q18 -31 18 -71v-448h-101v433q0 24 -24 24q-11 0 -24 -13q-6 -8 -9 -13v-431h-101v735h101v-8h82l69 -90h-92l-31 35z" />
    <glyph glyph-name="Hbar" unicode="&#x126;" horiz-adv-x="380" 
d="M380 627v-79h-40v-548h-108v320h-84v-320h-108v548h-39v79h39v108h108v-108h84v108h108v-108h40zM232 431v117h-84v-117h84z" />
    <glyph glyph-name="hbar" unicode="&#x127;" 
d="M141 612v-111q2 1 12 11q26 26 44 36q13 7 26 7q36 0 58 -36q18 -31 18 -71v-448h-101v433q0 24 -24 24q-11 0 -24 -13q-6 -8 -9 -13v-431h-101v612h-38v79h38v44h101v-44h55v-79h-55z" />
    <glyph glyph-name="Itilde" unicode="&#x128;" horiz-adv-x="188" 
d="M-2 899v-74l4 2t3.5 2t4 2t4.5 2q22 8 37 8q25 -2 45 -10q19 -9 43 -9q11 0 20 3q21 5 33 16v74l-4 -2t-3.5 -2t-4 -2t-4.5 -2q-22 -8 -37 -8q-22 1 -44 11q-22 8 -44 8q-11 0 -20 -3q-22 -7 -33 -16zM40 735v-735h108v735h-108z" />
    <glyph glyph-name="itilde" unicode="&#x129;" horiz-adv-x="181" 
d="M-5 711v-74l4 2t3.5 2t4 2t4.5 2q22 8 37 8q25 -2 45 -10q19 -9 43 -9q11 0 20 3q21 5 33 16v74l-16 -8q-22 -8 -37 -8q-22 1 -44 11q-22 8 -44 8q-11 0 -20 -3q-22 -7 -33 -16zM40 0h101v547h-101v-547z" />
    <glyph glyph-name="Imacron" unicode="&#x12a;" horiz-adv-x="188" 
d="M-2 909v-79h194v79h-194zM40 735v-735h108v735h-108z" />
    <glyph glyph-name="imacron" unicode="&#x12b;" horiz-adv-x="181" 
d="M-5 721v-79h194v79h-194zM40 0h101v547h-101v-547z" />
    <glyph glyph-name="Ibreve" unicode="&#x12c;" horiz-adv-x="188" 
d="M205 871l-52 46q-6 -7 -15 -12q-17 -11 -43 -11q-13 0 -24 3q-21 6 -32 20l-54 -46q11 -13 29 -24q36 -23 81 -23q28 0 46 7q36 12 64 40zM40 735v-735h108v735h-108z" />
    <glyph glyph-name="ibreve" unicode="&#x12d;" horiz-adv-x="181" 
d="M202 683l-52 46q-6 -7 -15 -12q-17 -11 -43 -11q-14 0 -24 3q-21 6 -32 20l-54 -46q11 -13 29 -24q36 -23 81 -23q28 0 46 7q36 12 64 40zM40 0h101v547h-101v-547z" />
    <glyph glyph-name="Iogonek" unicode="&#x12e;" horiz-adv-x="188" 
d="M148 0h-46q-26 -23 -38 -50q-7 -14 -7 -33q0 -38 50 -38q20 0 42 9l-8 -67q-27 -9 -51 -9q-47 0 -74.5 25t-27.5 60t33 72q15 19 33 31h-14v735h108v-735z" />
    <glyph glyph-name="iogonek" unicode="&#x12f;" horiz-adv-x="181" 
d="M141 735v-101h-101v101h101zM141 0h-16q-26 -23 -38 -50q-7 -14 -7 -33q0 -38 50 -38q20 0 42 9l-8 -67q-27 -9 -51 -9q-47 0 -74.5 25t-27.5 60t33 72q15 19 33 31h-37v547h101v-547z" />
    <glyph glyph-name="Idotaccent" unicode="&#x130;" horiz-adv-x="188" 
d="M45 923v-101h101v101h-101zM40 735v-735h108v735h-108z" />
    <glyph glyph-name="dotlessi" unicode="&#x131;" horiz-adv-x="181" 
d="M40 0h101v547h-101v-547z" />
    <glyph glyph-name="IJ" unicode="&#x132;" horiz-adv-x="395" 
d="M40 735v-735h108v735h-108zM194 99v-106q90 -6 131 39q35 38 35 104v599h-108v-582q0 -25 -9 -36q-17 -23 -49 -18z" />
    <glyph glyph-name="ij" unicode="&#x133;" horiz-adv-x="359" 
d="M40 735v-101h101v101h-101zM218 735v-101h101v101h-101zM40 0h101v547h-101v-547zM319 547h-101v-560v-23q0 -10 -2 -26q-7 -31 -29 -31q-5 0 -19 2q-2 1 -5 1t-4 1v-93q6 -2 10 -3q10 -3 34 -3q77 0 102 66q14 36 14 108v561z" />
    <glyph glyph-name="Jcircumflex" unicode="&#x134;" horiz-adv-x="207" 
d="M158 915h-107l-69 -90h92l30 35l31 -35h92zM6 99v-106q90 -6 131 39q35 38 35 104v599h-108v-582q0 -25 -9 -36q-17 -23 -49 -18z" />
    <glyph glyph-name="jcircumflex" unicode="&#x135;" horiz-adv-x="178" 
d="M213 645h-75v-11h-101v11h-69l69 90h107zM37 -13v560h101v-561q0 -72 -14 -108q-25 -66 -102 -66q-23 0 -34 3q-4 1 -10 3v93q2 -1 5 -1t4 -1q14 -2 19 -2q22 0 29 31q2 16 2 26v23z" />
    <glyph glyph-name="Kcommaaccent" unicode="&#x136;" horiz-adv-x="375" 
d="M148 735h-108v-735h108v260l25 60l6 15h3l3 -15l75 -320h105l-112 493l99 242h-105l-90 -245l-5 -12h-4v257zM215 -123v69h-84v-69h31l-20 -65h51z" />
    <glyph glyph-name="kcommaaccent" unicode="&#x137;" horiz-adv-x="313" 
d="M141 735h-101v-735h101v189l13 32l3 8h5l2 -8l50 -221h97l-92 369l73 178h-91l-49 -143l-6 -18h-5v349zM215 -123v69h-84v-69h31l-20 -65h51z" />
    <glyph glyph-name="kgreenlandic" unicode="&#x138;" horiz-adv-x="313" 
d="M141 735h-101v-735h101v189l13 32l3 8h5l2 -8l50 -221h97l-92 369l73 178h-91l-49 -143l-6 -18h-5v349z" />
    <glyph glyph-name="Lacute" unicode="&#x139;" horiz-adv-x="295" 
d="M227 915h-105l-52 -90h78zM40 735v-735h251v100h-143v635h-108z" />
    <glyph glyph-name="lacute" unicode="&#x13a;" horiz-adv-x="181" 
d="M170 838h-105l-52 -90h78zM40 0h101v735h-101v-735z" />
    <glyph glyph-name="Lcommaaccent" unicode="&#x13b;" horiz-adv-x="295" 
d="M40 735v-735h251v100h-143v635h-108zM215 -123v69h-84v-69h31l-20 -65h51z" />
    <glyph glyph-name="lcommaaccent" unicode="&#x13c;" horiz-adv-x="181" 
d="M40 0h101v735h-101v-735zM135 -116v69h-84v-69h31l-20 -65h51z" />
    <glyph glyph-name="Lcaron" unicode="&#x13d;" horiz-adv-x="295" 
d="M289 737v111h-105v-111h35l-35 -130h50zM40 735v-735h251v100h-143v635h-108z" />
    <glyph glyph-name="lcaron" unicode="&#x13e;" horiz-adv-x="332" 
d="M40 0h101v735h-101v-735zM308 624v111h-105v-111h35l-35 -130h50z" />
    <glyph glyph-name="Ldot" unicode="&#x13f;" horiz-adv-x="295" 
d="M40 735v-735h251v100h-143v635h-108zM186 440v-111h105v111h-105z" />
    <glyph glyph-name="ldot" unicode="&#x140;" horiz-adv-x="286" 
d="M40 0h101v735h-101v-735zM181 428v-111h105v111h-105z" />
    <glyph glyph-name="Lslash" unicode="&#x141;" horiz-adv-x="307" 
d="M20 382v-108l32 25v-299h251v100h-143v283l59 46v108l-59 -46v244h-108v-328z" />
    <glyph glyph-name="lslash" unicode="&#x142;" horiz-adv-x="229" 
d="M64 0h101v391l49 38v108l-49 -38v236h-101v-315l-49 -38v-108l49 38v-312z" />
    <glyph glyph-name="Nacute" unicode="&#x143;" horiz-adv-x="395" 
d="M277 915h-105l-52 -90h78zM154 383l105 -383h96v735h-99v-417h-6l-9 34l-105 383h-96v-735h99v417h6z" />
    <glyph glyph-name="nacute" unicode="&#x144;" 
d="M248 727h-105l-52 -90h78zM141 0v431q3 5 9 13q13 13 24 13q24 0 24 -24v-433h101v448q0 40 -18 71q-22 36 -58 36q-13 0 -26 -7q-18 -10 -44 -36q-10 -10 -12 -11v46h-101v-547h101z" />
    <glyph glyph-name="Ncommaaccent" unicode="&#x145;" horiz-adv-x="395" 
d="M154 383l105 -383h96v735h-99v-417h-6l-9 34l-105 383h-96v-735h99v417h6zM215 -123v69h-84v-69h31l-20 -65h51z" />
    <glyph glyph-name="ncommaaccent" unicode="&#x146;" 
d="M141 0v431q3 5 9 13q13 13 24 13q24 0 24 -24v-433h101v448q0 40 -18 71q-22 36 -58 36q-13 0 -26 -7q-18 -10 -44 -36q-10 -10 -12 -11v46h-101v-547h101zM215 -123v69h-84v-69h31l-20 -65h51z" />
    <glyph glyph-name="Ncaron" unicode="&#x147;" horiz-adv-x="395" 
d="M145 825h107l69 90h-92l-31 -35l-30 35h-92zM154 383l105 -383h96v735h-99v-417h-6l-9 34l-105 383h-96v-735h99v417h6z" />
    <glyph glyph-name="ncaron" unicode="&#x148;" 
d="M116 637h107l69 90h-92l-31 -35l-30 35h-92zM141 0v431q3 5 9 13q13 13 24 13q24 0 24 -24v-433h101v448q0 40 -18 71q-22 36 -58 36q-13 0 -26 -7q-18 -10 -44 -36q-10 -10 -12 -11v46h-101v-547h101z" />
    <glyph glyph-name="napostrophe" unicode="&#x149;" 
d="M86 635v69h-84v-69h31l-20 -65h51zM141 0v431q3 5 9 13q13 13 24 13q24 0 24 -24v-433h101v448q0 40 -18 71q-22 36 -58 36q-13 0 -26 -7q-18 -10 -44 -36q-10 -10 -12 -11v46h-101v-547h101z" />
    <glyph glyph-name="Eng" unicode="&#x14a;" horiz-adv-x="395" 
d="M256 735h99v-735q-3 -53 -29 -84q-36 -43 -110 -37v101q27 -5 42 17q0 1 1 1l1 2h-1l-105 383l-9 34h-6v-417h-99v735h96l105 -383l9 -34h6v417z" />
    <glyph glyph-name="eng" unicode="&#x14b;" 
d="M299 452v-471q0 -53 -33 -81q-41 -36 -121 -32v84q27 -5 45 13q8 10 8 29v439q0 24 -24 24q-11 0 -24 -13q-6 -8 -9 -13v-431h-101v547h101v-46q2 1 12 11q26 26 44 36q13 7 26 7q36 0 58 -36q16 -30 18 -67z" />
    <glyph glyph-name="Omacron" unicode="&#x14c;" horiz-adv-x="354" 
d="M81 909v-79h194v79h-194zM321 151v433q-2 45 -18 79q-15 34 -43 55q-33 25 -83 25q-51 0 -84 -25q-26 -20 -42 -55q-16 -34 -18 -79v-433q2 -46 18 -80q15 -34 42 -54q31 -25 84 -25q52 0 83 25q28 21 43 54q16 34 18 80zM213 584v-433q0 -18 -4 -27q-7 -27 -32 -27
q-13 0 -21 8q-15 16 -15 46v433q0 16 4 27q8 27 32 27q14 0 22 -8q14 -17 14 -46z" />
    <glyph glyph-name="omacron" unicode="&#x14d;" horiz-adv-x="321" 
d="M65 721v-79h194v79h-194zM290 133v281q-1 36 -16 70q-32 71 -114 71q-50 0 -75 -22q-49 -42 -54 -122v-275q1 -38 16 -72q32 -72 113 -72q50 0 76 22q50 41 54 119zM195 411v-275q1 -16 -3 -28q-7 -27 -32 -27q-13 0 -21 8q-14 18 -13 47v275q-1 16 3 28q7 28 31 28
q14 0 22 -8q14 -17 13 -48z" />
    <glyph glyph-name="Obreve" unicode="&#x14e;" horiz-adv-x="354" 
d="M288 871l-52 46q-6 -7 -15 -12q-17 -11 -43 -11q-14 0 -24 3q-21 6 -32 20l-54 -46q11 -13 29 -24q36 -23 81 -23q28 0 46 7q36 12 64 40zM321 151v433q-2 45 -18 79q-15 34 -43 55q-33 25 -83 25q-51 0 -84 -25q-26 -20 -42 -55q-16 -34 -18 -79v-433q2 -46 18 -80
q15 -34 42 -54q31 -25 84 -25q52 0 83 25q28 21 43 54q16 34 18 80zM213 584v-433q0 -18 -4 -27q-7 -27 -32 -27q-13 0 -21 8q-15 16 -15 46v433q0 16 4 27q8 27 32 27q14 0 22 -8q14 -17 14 -46z" />
    <glyph glyph-name="obreve" unicode="&#x14f;" horiz-adv-x="321" 
d="M272 683l-52 46q-6 -7 -15 -12q-17 -11 -43 -11q-14 0 -24 3q-21 6 -32 20l-54 -46q11 -13 29 -24q36 -23 81 -23q28 0 46 7q36 12 64 40zM290 133v281q-1 36 -16 70q-32 71 -114 71q-50 0 -75 -22q-49 -42 -54 -122v-275q1 -38 16 -72q32 -72 113 -72q50 0 76 22
q50 41 54 119zM195 411v-275q1 -16 -3 -28q-7 -27 -32 -27q-13 0 -21 8q-14 18 -13 47v275q-1 16 3 28q7 28 31 28q14 0 22 -8q14 -17 13 -48z" />
    <glyph glyph-name="Ohungarumlaut" unicode="&#x150;" horiz-adv-x="354" 
d="M183 915h-105l-52 -90h78zM331 915h-105l-52 -90h78zM321 151v433q-2 45 -18 79q-15 34 -43 55q-33 25 -83 25q-51 0 -84 -25q-26 -20 -42 -55q-16 -34 -18 -79v-433q2 -46 18 -80q15 -34 42 -54q31 -25 84 -25q52 0 83 25q28 21 43 54q16 34 18 80zM213 584v-433
q0 -18 -4 -27q-7 -27 -32 -27q-13 0 -21 8q-15 16 -15 46v433q0 16 4 27q8 27 32 27q14 0 22 -8q14 -17 14 -46z" />
    <glyph glyph-name="ohungarumlaut" unicode="&#x151;" horiz-adv-x="321" 
d="M166 727h-105l-52 -90h78zM314 727h-105l-52 -90h78zM290 133v281q-1 36 -16 70q-32 71 -114 71q-50 0 -75 -22q-49 -42 -54 -122v-275q1 -38 16 -72q32 -72 113 -72q50 0 76 22q50 41 54 119zM195 411v-275q1 -16 -3 -28q-7 -27 -32 -27q-13 0 -21 8q-14 18 -13 47v275
q-1 16 3 28q7 28 31 28q14 0 22 -8q14 -17 13 -48z" />
    <glyph glyph-name="OE" unicode="&#x152;" horiz-adv-x="480" 
d="M177 0h283v111h-139v202h100v118h-100v193h139v111h-283q-51 0 -84 -23q-25 -18 -42 -53q-17 -33 -18 -75v-433q1 -43 18 -76q15 -32 42 -51q34 -24 84 -24zM213 591v-440q0 -18 -4 -27q-7 -27 -32 -27q-13 0 -21 8q-15 16 -15 46v433q0 16 4 27q8 27 32 27q20 0 29 -18
q7 -14 7 -29z" />
    <glyph glyph-name="oe" unicode="&#x153;" horiz-adv-x="486" 
d="M457 196h-94v-60q0 -17 -4 -28q-7 -27 -32 -27q-21 0 -31 23q-6 14 -6 29v122h167v159q-1 36 -16 70q-32 71 -114 71q-51 0 -83 -29q-32 29 -84 29q-50 0 -75 -22q-49 -42 -54 -122v-275q1 -38 16 -72q32 -72 113 -72q50 0 83 28q31 -28 83 -28q50 0 76 22q51 41 55 119
v63zM195 411v-275q1 -16 -3 -28q-7 -27 -32 -27q-13 0 -21 8q-14 18 -13 47v275q-1 16 3 28q7 28 31 28q14 0 22 -8q14 -17 13 -48zM290 334v80q0 16 6 30q10 23 31 23q14 0 22 -8q14 -17 14 -48v-77h-73z" />
    <glyph glyph-name="Racute" unicode="&#x154;" horiz-adv-x="361" 
d="M260 915h-105l-52 -90h78zM233 0h108l-69 356q60 41 60 167q0 106 -44.5 159t-139.5 53h-108v-735h108v310h29zM148 410v218q34 0 51 -15q29 -25 29 -94q0 -68 -29 -93q-18 -16 -51 -16z" />
    <glyph glyph-name="racute" unicode="&#x155;" horiz-adv-x="246" 
d="M203 727h-105l-52 -90h78zM242 443v112q-46 0 -77 -29q-21 -21 -24 -40v61h-101v-547h101v380q0 31 22 50q18 17 51 17q16 0 28 -4z" />
    <glyph glyph-name="Rcommaaccent" unicode="&#x156;" horiz-adv-x="361" 
d="M233 0h108l-69 356q60 41 60 167q0 106 -44.5 159t-139.5 53h-108v-735h108v310h29zM148 410v218q34 0 51 -15q29 -25 29 -94q0 -68 -29 -93q-18 -16 -51 -16zM215 -123v69h-84v-69h31l-20 -65h51z" />
    <glyph glyph-name="rcommaaccent" unicode="&#x157;" horiz-adv-x="246" 
d="M242 443v112q-46 0 -77 -29q-21 -21 -24 -40v61h-101v-547h101v380q0 31 22 50q18 17 51 17q16 0 28 -4zM133 -117v69h-84v-69h31l-20 -65h51z" />
    <glyph glyph-name="Rcaron" unicode="&#x158;" horiz-adv-x="361" 
d="M128 825h107l69 90h-92l-31 -35l-30 35h-92zM233 0h108l-69 356q60 41 60 167q0 106 -44.5 159t-139.5 53h-108v-735h108v310h29zM148 410v218q34 0 51 -15q29 -25 29 -94q0 -68 -29 -93q-18 -16 -51 -16z" />
    <glyph glyph-name="rcaron" unicode="&#x159;" horiz-adv-x="246" 
d="M71 637h107l69 90h-92l-31 -35l-30 35h-92zM242 443v112q-46 0 -77 -29q-21 -21 -24 -40v61h-101v-547h101v380q0 31 22 50q18 17 51 17q16 0 28 -4z" />
    <glyph glyph-name="Sacute" unicode="&#x15a;" horiz-adv-x="343" 
d="M251 915h-105l-52 -90h78zM219 538l106 10q0 79 -27 130q-36 66 -124 65q-70 -1 -109 -56q-32 -46 -32 -116q0 -31 9 -59q16 -57 53 -114q34 -53 68 -101q6 -9 15.5 -24.5t12.5 -19.5q28 -51 28 -81q0 -81 -44 -81q-30 0 -42 40q-9 26 -9 85l-106 -10q0 -99 27 -148
q36 -66 130 -66q81 0 119 56q31 46 31 129q0 53 -32 115q-21 41 -69 112q-49 73 -58 88q-27 47 -27 79q0 72 37 73q23 0 35 -34q8 -24 8 -72z" />
    <glyph glyph-name="sacute" unicode="&#x15b;" horiz-adv-x="308" 
d="M234 727h-105l-52 -90h78zM193 407h94q0 64 -20 98q-30 51 -109 50q-65 -1 -98 -50q-25 -38 -25 -98q0 -51 31 -97q16 -24 65 -71q63 -63 63 -97q0 -66 -35 -66q-26 0 -39 31q-8 18 -8 52h-94q0 -64 24 -105q36 -62 117 -62q65 0 101 50q28 39 28 100q0 46 -30 95
q-15 24 -63 72q-29 28 -44 47q-22 27 -22 51q0 28 6 42q7 22 25 22q20 0 29 -22q4 -13 4 -42z" />
    <glyph glyph-name="Scircumflex" unicode="&#x15c;" horiz-adv-x="343" 
d="M226 915h-107l-69 -90h92l30 35l31 -35h92zM219 538l106 10q0 79 -27 130q-36 66 -124 65q-70 -1 -109 -56q-32 -46 -32 -116q0 -31 9 -59q16 -57 53 -114q34 -53 68 -101q6 -9 15.5 -24.5t12.5 -19.5q28 -51 28 -81q0 -81 -44 -81q-30 0 -42 40q-9 26 -9 85l-106 -10
q0 -99 27 -148q36 -66 130 -66q81 0 119 56q31 46 31 129q0 53 -32 115q-21 41 -69 112q-49 73 -58 88q-27 47 -27 79q0 72 37 73q23 0 35 -34q8 -24 8 -72z" />
    <glyph glyph-name="scircumflex" unicode="&#x15d;" horiz-adv-x="308" 
d="M209 727h-107l-69 -90h92l30 35l31 -35h92zM193 407h94q0 64 -20 98q-30 51 -109 50q-65 -1 -98 -50q-25 -38 -25 -98q0 -51 31 -97q16 -24 65 -71q63 -63 63 -97q0 -66 -35 -66q-26 0 -39 31q-8 18 -8 52h-94q0 -64 24 -105q36 -62 117 -62q65 0 101 50q28 39 28 100
q0 46 -30 95q-15 24 -63 72q-29 28 -44 47q-22 27 -22 51q0 28 6 42q7 22 25 22q20 0 29 -22q4 -13 4 -42z" />
    <glyph glyph-name="Scedilla" unicode="&#x15e;" horiz-adv-x="343" 
d="M219 538l106 10q0 79 -27 130q-36 66 -124 65q-70 -1 -109 -56q-32 -46 -32 -116q0 -31 9 -59q16 -57 53 -114q34 -53 68 -101q6 -9 15.5 -24.5t12.5 -19.5q28 -51 28 -81q0 -81 -44 -81q-30 0 -42 40q-9 26 -9 85l-106 -10q0 -99 27 -148q36 -66 130 -66q81 0 119 56
q31 46 31 129q0 53 -32 115q-21 41 -69 112q-49 73 -58 88q-27 47 -27 79q0 72 37 73q23 0 35 -34q8 -24 8 -72zM215 -123v69h-84v-69h31l-20 -65h51z" />
    <glyph glyph-name="scedilla" unicode="&#x15f;" horiz-adv-x="308" 
d="M193 407h94q0 64 -20 98q-30 51 -109 50q-65 -1 -98 -50q-25 -38 -25 -98q0 -51 31 -97q16 -24 65 -71q63 -63 63 -97q0 -66 -35 -66q-26 0 -39 31q-8 18 -8 52h-94q0 -64 24 -105q36 -62 117 -62q65 0 101 50q28 39 28 100q0 46 -30 95q-15 24 -63 72q-29 28 -44 47
q-22 27 -22 51q0 28 6 42q7 22 25 22q20 0 29 -22q4 -13 4 -42zM197 -123v69h-84v-69h31l-20 -65h51z" />
    <glyph glyph-name="Scaron" unicode="&#x160;" horiz-adv-x="343" 
d="M118 800h107l69 90h-92l-31 -35l-30 35h-92zM219 538l106 10q0 79 -27 130q-36 66 -124 65q-70 -1 -109 -56q-32 -46 -32 -116q0 -31 9 -59q16 -57 53 -114q34 -53 68 -101q6 -9 15.5 -24.5t12.5 -19.5q28 -51 28 -81q0 -81 -44 -81q-30 0 -42 40q-9 26 -9 85l-106 -10
q0 -99 27 -148q36 -66 130 -66q81 0 119 56q31 46 31 129q0 53 -32 115q-21 41 -69 112q-49 73 -58 88q-27 47 -27 79q0 72 37 73q23 0 35 -34q8 -24 8 -72z" />
    <glyph glyph-name="scaron" unicode="&#x161;" horiz-adv-x="308" 
d="M101 637h107l69 90h-92l-31 -35l-30 35h-92zM193 407h94q0 64 -20 98q-30 51 -109 50q-65 -1 -98 -50q-25 -38 -25 -98q0 -51 31 -97q16 -24 65 -71q63 -63 63 -97q0 -66 -35 -66q-26 0 -39 31q-8 18 -8 52h-94q0 -64 24 -105q36 -62 117 -62q65 0 101 50q28 39 28 100
q0 46 -30 95q-15 24 -63 72q-29 28 -44 47q-22 27 -22 51q0 28 6 42q7 22 25 22q20 0 29 -22q4 -13 4 -42z" />
    <glyph glyph-name="Tcaron" unicode="&#x164;" horiz-adv-x="316" 
d="M106 825h107l69 90h-92l-31 -35l-30 35h-92zM2 624h102v-624h108v624h102v111h-312v-111z" />
    <glyph glyph-name="tcaron" unicode="&#x165;" horiz-adv-x="396" 
d="M372 624v111h-105v-111h35l-35 -130h50zM162 682h-101v-135h-51v-91h51v-280q0 -75 15 -116q25 -68 101 -68q24 0 39 3q2 1 7 2t8 2v99q-2 0 -6 -1t-6 -1q-14 -2 -25 -2q-21 0 -28 33q-4 18 -4 57v272h69v91h-69v135z" />
    <glyph glyph-name="Tbar" unicode="&#x166;" horiz-adv-x="316" 
d="M314 624h-102v-74h47v-79h-47v-471h-108v471h-39v79h39v74h-102v111h312v-111z" />
    <glyph glyph-name="tbar" unicode="&#x167;" horiz-adv-x="245" 
d="M231 456h-69v-272q0 -39 4 -57q7 -33 28 -33q11 0 25 2q2 0 6 1t6 1v-99q-3 -1 -8 -2t-7 -2q-15 -3 -39 -3q-76 0 -101 68q-15 41 -15 116v280h-51v91h51v95h-34v79h194v-79h-59v-95h69v-91z" />
    <glyph glyph-name="Utilde" unicode="&#x168;" horiz-adv-x="366" 
d="M87 899v-74l16 8q22 8 37 8q25 -2 45 -10q19 -9 43 -9q11 0 20 3q21 5 33 16v74l-4 -2t-3.5 -2t-4 -2t-4.5 -2q-22 -8 -37 -8q-22 1 -44 11q-22 8 -44 8q-11 0 -20 -3q-22 -7 -33 -16zM327 735h-108v-584q0 -18 -4 -27q-7 -27 -32 -27q-13 0 -21 8q-15 16 -15 46v584
h-108v-584q2 -46 18 -80q15 -34 42 -54q31 -25 84 -25q52 0 83 25q28 21 43 54q16 34 18 80v584z" />
    <glyph glyph-name="utilde" unicode="&#x169;" 
d="M73 711v-74l4 2t3.5 2t4 2t4.5 2q22 8 37 8q25 -2 45 -10q19 -9 43 -9q11 0 20 3q21 5 33 16v74l-4 -2t-3.5 -2t-4 -2t-4.5 -2q-22 -8 -37 -8q-22 1 -44 11q-22 8 -44 8q-11 0 -20 -3q-22 -7 -33 -16zM196 547v-431q-6 -10 -9 -13q-13 -13 -24 -13q-24 0 -24 24v433h-101
v-448q0 -40 18 -70q21 -37 58 -37q13 0 27 8q18 10 44 36q9 9 11 10v-46h101v547h-101z" />
    <glyph glyph-name="Umacron" unicode="&#x16a;" horiz-adv-x="366" 
d="M87 909v-79h194v79h-194zM327 735h-108v-584q0 -18 -4 -27q-7 -27 -32 -27q-13 0 -21 8q-15 16 -15 46v584h-108v-584q2 -46 18 -80q15 -34 42 -54q31 -25 84 -25q52 0 83 25q28 21 43 54q16 34 18 80v584z" />
    <glyph glyph-name="umacron" unicode="&#x16b;" 
d="M73 721v-79h194v79h-194zM196 547v-431q-6 -10 -9 -13q-13 -13 -24 -13q-24 0 -24 24v433h-101v-448q0 -40 18 -70q21 -37 58 -37q13 0 27 8q18 10 44 36q9 9 11 10v-46h101v547h-101z" />
    <glyph glyph-name="Ubreve" unicode="&#x16c;" horiz-adv-x="366" 
d="M294 871l-52 46q-6 -7 -15 -12q-17 -11 -43 -11q-14 0 -24 3q-21 6 -32 20l-54 -46q11 -13 29 -24q36 -23 81 -23q28 0 46 7q36 12 64 40zM327 735h-108v-584q0 -18 -4 -27q-7 -27 -32 -27q-13 0 -21 8q-15 16 -15 46v584h-108v-584q2 -46 18 -80q15 -34 42 -54
q31 -25 84 -25q52 0 83 25q28 21 43 54q16 34 18 80v584z" />
    <glyph glyph-name="ubreve" unicode="&#x16d;" 
d="M280 683l-52 46q-6 -7 -15 -12q-17 -11 -43 -11q-14 0 -24 3q-21 6 -32 20l-54 -46q11 -13 29 -24q36 -23 81 -23q28 0 46 7q36 12 64 40zM196 547v-431q-6 -10 -9 -13q-13 -13 -24 -13q-24 0 -24 24v433h-101v-448q0 -40 18 -70q21 -37 58 -37q13 0 27 8q18 10 44 36
q9 9 11 10v-46h101v547h-101z" />
    <glyph glyph-name="Uring" unicode="&#x16e;" horiz-adv-x="366" 
d="M110 882q0 -30 22 -50t53 -20t52.5 20t21.5 50t-21.5 50t-52.5 20t-53 -20t-22 -50zM148 882q0 14 11.5 24.5t25.5 10.5t25.5 -10.5t11.5 -24.5t-11.5 -24.5t-25.5 -10.5t-25.5 10.5t-11.5 24.5zM327 735h-108v-584q0 -18 -4 -27q-7 -27 -32 -27q-13 0 -21 8
q-15 16 -15 46v584h-108v-584q2 -46 18 -80q15 -34 42 -54q31 -25 84 -25q52 0 83 25q28 21 43 54q16 34 18 80v584z" />
    <glyph glyph-name="uring" unicode="&#x16f;" 
d="M95 694q0 -30 22 -50t53 -20t52.5 20t21.5 50t-21.5 50t-52.5 20t-53 -20t-22 -50zM133 694q0 14 11.5 24.5t25.5 10.5t25.5 -10.5t11.5 -24.5t-11.5 -24.5t-25.5 -10.5t-25.5 10.5t-11.5 24.5zM196 547v-431q-6 -10 -9 -13q-13 -13 -24 -13q-24 0 -24 24v433h-101v-448
q0 -40 18 -70q21 -37 58 -37q13 0 27 8q18 10 44 36q9 9 11 10v-46h101v547h-101z" />
    <glyph glyph-name="Uhungarumlaut" unicode="&#x170;" horiz-adv-x="366" 
d="M189 915h-105l-52 -90h78zM337 915h-105l-52 -90h78zM327 735h-108v-584q0 -18 -4 -27q-7 -27 -32 -27q-13 0 -21 8q-15 16 -15 46v584h-108v-584q2 -46 18 -80q15 -34 42 -54q31 -25 84 -25q52 0 83 25q28 21 43 54q16 34 18 80v584z" />
    <glyph glyph-name="uhungarumlaut" unicode="&#x171;" 
d="M174 727h-105l-52 -90h78zM322 727h-105l-52 -90h78zM196 547v-431q-6 -10 -9 -13q-13 -13 -24 -13q-24 0 -24 24v433h-101v-448q0 -40 18 -70q21 -37 58 -37q13 0 27 8q18 10 44 36q9 9 11 10v-46h101v547h-101z" />
    <glyph glyph-name="Uogonek" unicode="&#x172;" horiz-adv-x="366" 
d="M235 0h47q-26 -23 -38 -50q-7 -14 -7 -33q0 -38 50 -38q20 0 42 9l-8 -67q-27 -9 -51 -9q-47 0 -74.5 25t-27.5 60t33 72q15 18 32 30q-25 -7 -50 -7q-53 0 -84 25q-27 20 -42 54q-16 34 -18 80v584h108v-584q0 -29 15 -46q8 -8 21 -8q25 0 32 27q4 9 4 27v584h108v-584
q-2 -46 -18 -80q-15 -33 -43 -54q-15 -12 -31 -17z" />
    <glyph glyph-name="uogonek" unicode="&#x173;" 
d="M297 0h-46q-26 -23 -38 -50q-7 -14 -7 -33q0 -38 50 -38q20 0 42 9l-8 -67q-27 -9 -51 -9q-47 0 -74.5 25t-27.5 60t33 72q15 19 33 31h-7v46q-2 -1 -11 -10q-26 -26 -44 -36q-14 -8 -27 -8q-37 0 -58 37q-18 30 -18 70v448h101v-433q0 -24 24 -24q11 0 24 13q3 3 9 13
v431h101v-547z" />
    <glyph glyph-name="Wcircumflex" unicode="&#x174;" horiz-adv-x="506" 
d="M306 915h-107l-69 -90h92l30 35l31 -35h92zM195 0l50 348l6 43h4l6 -43l50 -348h84l99 735h-100l-43 -382l-2 -24h-8l-3 24l-46 382h-78l-46 -382l-3 -24h-8l-2 24l-43 382h-100l99 -735h84z" />
    <glyph glyph-name="wcircumflex" unicode="&#x175;" horiz-adv-x="442" 
d="M276 727h-107l-69 -90h92l30 35l31 -35h92zM267 0h84l81 547h-92l-32 -286l-4 -31h-6l-5 31l-42 286h-60l-42 -286l-5 -31h-6l-4 31l-32 286h-92l81 -547h84l39 261l5 31h4l5 -31z" />
    <glyph glyph-name="Ycircumflex" unicode="&#x176;" horiz-adv-x="342" 
d="M226 915h-107l-69 -90h92l30 35l31 -35h92zM167 500l-54 235h-106l110 -422v-313h108v313l110 422h-106l-54 -235l-3 -7h-2z" />
    <glyph glyph-name="ycircumflex" unicode="&#x177;" horiz-adv-x="310" 
d="M210 727h-107l-69 -90h92l30 35l31 -35h92zM16 -104v-90q24 -2 33 -2h12q55 0 96 49q36 43 44 106l97 588h-99l-40 -336l-2 -28h-4l-2 28l-40 336h-99l93 -563q0 -17 -4 -30q-9 -32 -33 -50q-19 -14 -46 -9q-5 0 -6 1z" />
    <glyph glyph-name="Ydieresis" unicode="&#x178;" horiz-adv-x="344" 
d="M55 898v-98h93v98h-93zM196 898v-98h93v98h-93zM168 500l-54 235h-106l110 -422v-313h108v313l110 422h-106l-54 -235l-3 -7h-2z" />
    <glyph glyph-name="Zacute" unicode="&#x179;" horiz-adv-x="306" 
d="M233 915h-105l-52 -90h78zM10 116v-116h286v107h-172l172 521v107h-262v-107h145z" />
    <glyph glyph-name="zacute" unicode="&#x17a;" horiz-adv-x="260" 
d="M210 727h-105l-52 -90h78zM6 82v-82h246v92h-139l139 373v82h-224v-92h117z" />
    <glyph glyph-name="Zdotaccent" unicode="&#x17b;" horiz-adv-x="306" 
d="M104 923v-101h101v101h-101zM10 116v-116h286v107h-172l172 521v107h-262v-107h145z" />
    <glyph glyph-name="zdotaccent" unicode="&#x17c;" horiz-adv-x="260" 
d="M81 735v-101h101v101h-101zM6 82v-82h246v92h-139l139 373v82h-224v-92h117z" />
    <glyph glyph-name="Zcaron" unicode="&#x17d;" horiz-adv-x="306" 
d="M112 800h107l69 90h-92l-31 -35l-30 35h-92zM10 116v-116h286v107h-172l172 521v107h-262v-107h145z" />
    <glyph glyph-name="zcaron" unicode="&#x17e;" horiz-adv-x="260" 
d="M81 637h107l69 90h-92l-31 -35l-30 35h-92zM6 82v-82h246v92h-139l139 373v82h-224v-92h117z" />
    <glyph glyph-name="longs" unicode="&#x17f;" horiz-adv-x="232" 
d="M18 0h77v565q0 46 14.5 63t51.5 17q24 0 43 -4l12 78q-42 8 -71 8q-61 0 -94 -34.5t-33 -119.5v-573z" />
    <glyph glyph-name="uni021A" unicode="&#x21a;" horiz-adv-x="316" 
d="M2 624h102v-624h108v624h102v111h-312v-111zM215 -123v69h-84v-69h31l-20 -65h51z" />
    <glyph glyph-name="uni021B" unicode="&#x21b;" horiz-adv-x="245" 
d="M162 682h-101v-135h-51v-91h51v-280q0 -75 15 -116q25 -68 101 -68q24 0 39 3q2 1 7 2t8 2v99q-2 0 -6 -1t-6 -1q-14 -2 -25 -2q-21 0 -28 33q-4 18 -4 57v272h69v91h-69v135zM215 -123v69h-84v-69h31l-20 -65h51z" />
    <glyph glyph-name="circumflex" unicode="&#x2c6;" horiz-adv-x="499" 
d="M303 727h-107l-69 -90h92l30 35l31 -35h92z" />
    <glyph glyph-name="caron" unicode="&#x2c7;" horiz-adv-x="499" 
d="M196 637h107l69 90h-92l-31 -35l-30 35h-92z" />
    <glyph glyph-name="breve" unicode="&#x2d8;" horiz-adv-x="500" 
d="M360 683l-52 46q-6 -7 -15 -12q-17 -11 -43 -11q-14 0 -24 3q-21 6 -32 20l-54 -46q11 -13 29 -24q36 -23 81 -23q28 0 46 7q36 12 64 40z" />
    <glyph glyph-name="dotaccent" unicode="&#x2d9;" horiz-adv-x="499" 
d="M199 735v-101h101v101h-101z" />
    <glyph glyph-name="ring" unicode="&#x2da;" horiz-adv-x="499" 
d="M175 694q0 -30 22 -50t53 -20t52.5 20t21.5 50t-21.5 50t-52.5 20t-53 -20t-22 -50zM213 694q0 14 11.5 24.5t25.5 10.5t25.5 -10.5t11.5 -24.5t-11.5 -24.5t-25.5 -10.5t-25.5 10.5t-11.5 24.5z" />
    <glyph glyph-name="ogonek" unicode="&#x2db;" horiz-adv-x="500" 
d="M284 0h-48q-18 -12 -33 -31q-33 -37 -33 -72t27.5 -60t74.5 -25q24 0 51 9l8 67q-22 -9 -42 -9q-50 0 -50 38q0 19 7 33q12 27 38 50z" />
    <glyph glyph-name="tilde" unicode="&#x2dc;" horiz-adv-x="500" 
d="M153 711v-74l4 2t3.5 2t4 2t4.5 2q22 8 37 8q25 -2 45 -10q19 -9 43 -9q11 0 20 3q21 5 33 16v74l-4 -2t-3.5 -2t-4 -2t-4.5 -2q-22 -8 -37 -8q-22 1 -44 11q-22 8 -44 8q-11 0 -20 -3q-22 -7 -33 -16z" />
    <glyph glyph-name="hungarumlaut" unicode="&#x2dd;" horiz-adv-x="500" 
d="M262 727h-105l-52 -90h78zM410 727h-105l-52 -90h78z" />
    <glyph glyph-name="endash" unicode="&#x2013;" horiz-adv-x="394" 
d="M36 412v-95h322v95h-322z" />
    <glyph glyph-name="emdash" unicode="&#x2014;" horiz-adv-x="475" 
d="M36 412v-95h403v95h-403z" />
    <glyph glyph-name="quoteleft" unicode="&#x2018;" horiz-adv-x="151" 
d="M24 605v-111h105v111h-35l35 130h-50z" />
    <glyph glyph-name="quoteright" unicode="&#x2019;" horiz-adv-x="151" 
d="M127 624v111h-105v-111h35l-35 -130h50z" />
    <glyph glyph-name="quotesinglbase" unicode="&#x201a;" horiz-adv-x="151" 
d="M127 0v111h-105v-111h35l-35 -130h50z" />
    <glyph glyph-name="quotedblleft" unicode="&#x201c;" horiz-adv-x="305" 
d="M26 605v-111h105v111h-35l35 130h-50zM174 605v-111h105v111h-35l35 130h-50z" />
    <glyph glyph-name="quotedblright" unicode="&#x201d;" horiz-adv-x="305" 
d="M131 624v111h-105v-111h35l-35 -130h50zM279 624v111h-105v-111h35l-35 -130h50z" />
    <glyph glyph-name="quotedblbase" unicode="&#x201e;" horiz-adv-x="305" 
d="M131 0v111h-105v-111h35l-35 -130h50zM279 0v111h-105v-111h35l-35 -130h50z" />
    <glyph glyph-name="uni201F" unicode="&#x201f;" horiz-adv-x="305" 
d="M131 735h-105v-111l55 -130h50l-35 130h35v111zM279 735h-105v-111l55 -130h50l-35 130h35v111z" />
    <glyph glyph-name="bullet" unicode="&#x2022;" horiz-adv-x="324" 
d="M40 399q0 -51 36 -87t87 -36q50 0 86 36q35 35 35 87q0 51 -35 86t-86 35q-52 0 -87 -35q-36 -36 -36 -86z" />
    <glyph glyph-name="ellipsis" unicode="&#x2026;" horiz-adv-x="471" 
d="M26 111v-111h105v111h-105zM183 111v-111h105v111h-105zM340 111v-111h105v111h-105z" />
    <glyph glyph-name="Euro" unicode="&#x20ac;" horiz-adv-x="397" 
d="M26 468v-67h52v-67h-52v-67h52v-116q2 -46 18 -80q15 -34 42 -54q31 -25 84 -25q52 0 83 25q28 21 43 54q16 34 18 80v41h-101v-41q0 -18 -4 -27q-9 -27 -37 -27q-13 0 -21 8q-16 17 -17 46v116h114v67h-114v67h114v67h-114v116q2 19 5 27q10 27 33 27q17 0 25 -8
q16 -17 16 -46v-41h101v41q-2 45 -18 79q-15 34 -43 55q-33 25 -83 25q-51 0 -84 -25q-26 -20 -42 -55q-16 -34 -18 -79v-116h-52z" />
    <glyph glyph-name="trademark" unicode="&#x2122;" horiz-adv-x="458" 
d="M36 684h51v-283h55v283h51v51h-157v-51zM304 401h25l38 219v-219h51v334h-67l-33 -156h-3l-33 156h-67v-334h50v219z" />
    <glyph glyph-name="minus" unicode="&#x2212;" horiz-adv-x="379" 
d="M36 401v-84h307v84h-307z" />
    <glyph glyph-name="fi" unicode="&#xfb01;" horiz-adv-x="377" 
d="M236 0h101v547h-175v14v25q0 17 4 30q9 35 37 35q13 0 40 -3q10 -2 14 -3v90q-4 1 -11.5 2t-10.5 1q-17 4 -50 4q-82 0 -109 -68q-15 -36 -15 -112v-15h-51v-91h51v-456h101v456h74v-456z" />
    <glyph glyph-name="fl" unicode="&#xfb02;" horiz-adv-x="377" 
d="M236 0h101v735h-80q-4 1 -11.5 2t-10.5 1q-17 4 -50 4q-82 0 -109 -68q-15 -36 -15 -112v-15h-51v-91h51v-456h101v456h51v91h-51v14v25q0 17 4 30q9 35 37 35q15 0 33 -2v-649z" />
    </font>
</defs>
</svg>
